<?xml version="1.0" encoding="UTF-8" standalone="no"?>
<!-- Created with Inkscape (http://www.inkscape.org/) -->

<svg
   xmlns:dc="http://purl.org/dc/elements/1.1/"
   xmlns:cc="http://creativecommons.org/ns#"
   xmlns:rdf="http://www.w3.org/1999/02/22-rdf-syntax-ns#"
   xmlns:svg="http://www.w3.org/2000/svg"
   xmlns="http://www.w3.org/2000/svg"
   xmlns:sodipodi="http://sodipodi.sourceforge.net/DTD/sodipodi-0.dtd"
   xmlns:inkscape="http://www.inkscape.org/namespaces/inkscape"
   sodipodi:docname="logo.svg"
   viewBox="0 0 601.82044 115.7293"
   height="115.7293"
   width="601.82043"
   id="svg2"
   version="1.1"
   inkscape:version="0.92.4 (5da689c313, 2019-01-14)">
  <metadata
     id="metadata8">
    <rdf:RDF>
      <cc:Work
         rdf:about="">
        <dc:format>image/svg+xml</dc:format>
        <dc:type
           rdf:resource="http://purl.org/dc/dcmitype/StillImage" />
        <dc:title></dc:title>
      </cc:Work>
    </rdf:RDF>
  </metadata>
  <defs
     id="defs6">
    <filter
       inkscape:label="Cracked Lava"
       inkscape:menu="Materials"
       inkscape:menu-tooltip="A volcanic texture, a little like leather"
       style="color-interpolation-filters:sRGB;"
       id="filter441">
      <feGaussianBlur
         result="result0"
         in="SourceGraphic"
         stdDeviation="0.5"
         id="feGaussianBlur409" />
      <feTurbulence
         baseFrequency="0.042"
         seed="488"
         numOctaves="7"
         result="result1"
         id="feTurbulence411" />
      <feDisplacementMap
         result="result5"
         xChannelSelector="R"
         scale="0"
         in2="result1"
         in="result1"
         yChannelSelector="G"
         id="feDisplacementMap413" />
      <feComposite
         result="result2"
         operator="in"
         in2="result5"
         in="result0"
         id="feComposite415" />
      <feSpecularLighting
         lighting-color="rgb(255,230,136)"
         surfaceScale="2"
         result="result4"
         specularConstant="2"
         specularExponent="65"
         in="result2"
         id="feSpecularLighting419">
        <feDistantLight
           elevation="62"
           azimuth="225"
           id="feDistantLight417" />
      </feSpecularLighting>
      <feComposite
         k1="2.5"
         k3="1"
         k2="-0.5"
         in2="result2"
         in="result4"
         operator="arithmetic"
         result="result91"
         id="feComposite421" />
      <feBlend
         result="fbSourceGraphic"
         mode="multiply"
         in2="result91"
         id="feBlend423" />
      <feColorMatrix
         values="1 0 0 -1 0 1 0 1 -1 0 1 0 0 -1 0 -2 -0.5 0 5 -2"
         in="fbSourceGraphic"
         result="fbSourceGraphicAlpha"
         id="feColorMatrix425" />
      <feGaussianBlur
         stdDeviation="8"
         in="fbSourceGraphicAlpha"
         result="result0"
         id="feGaussianBlur427" />
      <feOffset
         dx="2"
         dy="2"
         in="result0"
         result="result3"
         id="feOffset429" />
      <feSpecularLighting
         in="result0"
         result="result1"
         lighting-color="rgb(255,255,255)"
         surfaceScale="4"
         specularConstant="0.8"
         specularExponent="15"
         id="feSpecularLighting433">
        <fePointLight
           x="-5000"
           y="-10000"
           z="20000"
           id="fePointLight431" />
      </feSpecularLighting>
      <feComposite
         in2="fbSourceGraphicAlpha"
         in="result1"
         result="result2"
         operator="in"
         id="feComposite435" />
      <feComposite
         in="fbSourceGraphic"
         result="result4"
         operator="arithmetic"
         k2="2"
         k3="2"
         in2="result2"
         id="feComposite437" />
      <feBlend
         mode="darken"
         in2="result4"
         id="feBlend439" />
    </filter>
  </defs>
  <sodipodi:namedview
     pagecolor="#ffffff"
     bordercolor="#666666"
     borderopacity="1"
     objecttolerance="10"
     gridtolerance="10"
     guidetolerance="10"
     inkscape:pageopacity="0"
     inkscape:pageshadow="2"
     inkscape:window-width="1600"
     inkscape:window-height="837"
     id="namedview4"
     showgrid="false"
     inkscape:zoom="1.7497299"
     inkscape:cx="282.81731"
     inkscape:cy="39.698059"
     inkscape:window-x="-8"
     inkscape:window-y="-8"
     inkscape:window-maximized="1"
     inkscape:current-layer="svg2" />
  <g
     id="g447">
    <path
       inkscape:connector-curvature="0"
       id="path14"
       d="m 562.86796,0.4845298 c -46.92095,0 -46.63803,-0.07245 -51.54789,13.1781752 -1.57163,4.241468 -2.35825,7.292847 -6.79043,26.356365 -0.87919,3.781523 -1.97223,7.908008 -2.42911,9.168517 -0.45688,1.260508 -1.5371,5.384199 -2.4014,9.165736 -0.86431,3.781525 -2.48421,10.486015 -3.59912,14.8978 -5.76092,22.796355 -10.35393,41.206887 -10.35393,41.497827 0,0.17993 4.79989,0.32676 10.66869,0.32676 h 10.67069 l 0.89483,-3.15125 c 1.46169,-5.14633 9.7586,-38.11561 11.46256,-45.549025 0.86683,-3.781524 2.08581,-8.421387 2.70826,-10.312157 0.62246,-1.890768 1.53823,-5.580802 2.03515,-8.19932 1.63225,-8.601361 4.78548,-17.143259 7.15866,-19.392061 2.16333,-2.049957 4.46936,-2.244562 32.9524,-2.777421 l 30.62821,-0.573196 1.81343,-7.446137 c 0.99709,-4.096654 2.40503,-9.6411622 3.12993,-12.3197502 l 1.31849,-4.870863 z m -219.13099,0.57321 -1.8352,8.022097 c -1.00936,4.4117842 -2.98196,12.4038812 -4.38309,17.7610572 -1.40112,5.357163 -3.31681,13.091181 -4.25639,17.187835 -0.9396,4.096669 -1.97393,7.965075 -2.29846,8.595321 -0.32454,0.630262 -1.05718,3.466337 -1.6293,6.302483 -0.57213,2.836147 -1.51367,6.704537 -2.09257,8.595307 -0.57891,1.890765 -3.37095,12.718951 -6.20246,24.063537 -2.8315,11.344603 -5.31168,21.270873 -5.51153,22.058693 -0.57559,2.26895 76.61943,2.06194 80.5171,-0.21598 3.357,-1.96194 5.52561,-6.58277 7.83176,-16.686636 0.93503,-4.096654 2.03767,-8.478438 2.45089,-9.738946 1.6877,-5.148281 4.02651,-17.447899 4.03665,-21.230737 0.006,-2.223224 -0.55457,-5.168101 -1.24326,-6.543406 -1.17734,-2.351109 -1.11472,-2.59915 1.02549,-4.156428 4.09179,-2.977358 5.91662,-6.991241 9.23142,-20.286483 3.51659,-14.104654 4.11212,-21.86276 2.09455,-27.3200042 -2.30823,-6.243432 -3.38466,-6.40771 -42.16403,-6.40771 z M 77.243209,1.4011118 c -6.685808,-0.0099 -14.739206,0.06181 -22.545028,0.221529 C 28.620318,2.1561098 26.177424,2.3761208 24.64805,4.3142018 22.163405,7.4628558 20.752483,12.19988 13.339903,42.289734 9.6163757,57.404657 6.2029242,69.942997 5.7536189,70.152488 5.3043034,70.36198 5.1622857,71.359731 5.4388507,72.367773 c 0.3012567,1.098498 0.1664762,1.542505 -0.3365609,1.107643 -0.4953032,-0.428171 -0.836547,0.551504 -0.8314789,2.389744 0.00405,1.7139 -0.7878022,6.070973 -1.7599709,9.683554 -0.9872007,3.668455 -1.85654832,9.851631 -1.96981985,14.006146 -0.1850355,6.78603 -0.003041,7.7196 2.06683295,10.62229 l 2.2687552,3.18171 15.7545957,0.70889 c 8.664871,0.38999 24.499451,0.53184 35.187499,0.31568 15.991547,-0.32344 19.980945,-0.73323 22.529185,-2.31775 1.703137,-1.05902 3.39994,-1.83261 3.771369,-1.71961 0.371439,0.113 0.462158,-0.27773 0.201922,-0.86673 -0.714832,-1.61779 0.400723,-4.80969 1.383829,-3.95983 0.504547,0.43617 0.616835,0.19238 0.271223,-0.58981 -0.828023,-1.874 0.266621,-6.089743 1.340263,-5.16162 0.515292,0.44545 0.652768,0.23408 0.326658,-0.50398 -0.717731,-1.624381 0.268365,-7.276073 1.138341,-6.52401 0.360502,0.311643 0.446274,-0.545209 0.192029,-1.905146 -0.344396,-1.842068 -0.187062,-2.234638 0.613714,-1.542391 0.719353,0.621853 0.877903,0.481692 0.479085,-0.420911 -0.736391,-1.666632 1.858089,-12.996416 2.791406,-12.189598 0.371196,0.320886 0.466071,-0.528593 0.211826,-1.88853 -0.296219,-1.584471 -0.148901,-2.202596 0.409804,-1.719614 0.558705,0.482982 0.706024,-0.135118 0.409805,-1.719615 -0.344386,-1.842068 -0.187063,-2.234637 0.613714,-1.542391 0.719353,0.621854 0.875926,0.481692 0.477109,-0.420911 -0.736392,-1.666613 1.860065,-12.996439 2.793382,-12.189608 0.371196,0.320872 0.46607,-0.528606 0.211825,-1.888528 -0.344386,-1.842068 -0.187062,-2.237403 0.613714,-1.545157 0.710676,0.614368 0.876139,0.483989 0.490975,-0.387678 -0.320384,-0.725096 1.098577,-8.508907 3.151699,-17.295841 2.05312,-8.786948 3.73177,-17.327472 3.73177,-18.979458 0,-1.710611 0.35302,-2.698934 0.81961,-2.295588 0.45058,0.389522 0.8196,-0.126614 0.8196,-1.14642 0,-1.019768 -0.36902,-1.535926 -0.8196,-1.146405 -0.45059,0.389522 -0.81961,-0.324133 -0.81961,-1.586697 0,-1.2625632 -0.87342,-3.7173262 -1.94209,-5.4551452 -1.82857,-2.973473 -2.443567,-3.197737 -10.444997,-3.796439 -2.338157,-0.174954 -7.657246,-0.26684 -14.343054,-0.276907 z M 69.999416,25.852318 c 7.997822,0.06536 8.167673,0.801401 7.85552,3.566616 -0.05332,0.472689 0.272014,0.861189 0.722596,0.861189 0.450583,0 0.81961,1.029537 0.81961,2.290046 0,1.260508 -0.357411,2.292822 -0.793864,2.292822 -0.436432,0 -0.609882,0.668344 -0.386045,1.484235 0.33654,1.226723 -2.664826,14.544195 -7.86146,34.896289 -0.522823,2.047589 -1.322819,3.400537 -1.77779,3.007244 -0.522712,-0.451875 -0.611281,0.234062 -0.241525,1.863618 0.43845,1.932253 0.322644,2.352981 -0.461276,1.675309 -0.743892,-0.643064 -0.894597,-0.353383 -0.52264,1.002414 0.287725,1.048777 0.144298,1.907911 -0.318742,1.907911 -0.46304,0 -0.615031,0.516172 -0.33655,1.146418 0.27848,0.630262 0.05534,1.143641 -0.496905,1.143641 -0.552238,0 -0.788005,0.301733 -0.524627,0.670114 0.263367,0.368397 -0.118005,1.641835 -0.845345,2.830036 -0.925746,1.51232 -1.92515,1.950387 -3.331856,1.456545 -1.39584,-0.490042 -1.832373,-0.305674 -1.42936,0.606429 0.428455,0.969678 -3.608248,1.312569 -15.441803,1.312569 -9.790208,0 -16.023832,-0.429476 -16.023832,-1.107643 0,-0.610541 -0.524728,-0.828836 -1.166053,-0.484598 -1.661812,0.891969 -3.141143,-3.620832 -2.508303,-7.651036 0.291962,-1.859307 0.83374,-3.118299 1.205645,-2.796803 0.371896,0.321497 0.468068,-0.528592 0.213812,-1.888529 -0.296219,-1.584471 -0.1489,-2.199832 0.409805,-1.716849 0.558705,0.482982 0.706014,-0.135118 0.409805,-1.719614 -0.296229,-1.584472 -0.14891,-2.202597 0.409794,-1.719614 0.558705,0.482981 0.706024,-0.135118 0.409805,-1.719614 -0.344396,-1.842064 -0.189059,-2.234634 0.611727,-1.542389 0.720042,0.622464 0.879038,0.484245 0.479096,-0.420911 -0.853627,-1.931927 4.359611,-23.270703 5.454123,-22.324544 0.505287,0.436803 0.640331,0.217274 0.316754,-0.515053 -0.717741,-1.624382 0.268365,-7.27331 1.138341,-6.521246 0.360503,0.311641 0.47197,-0.407514 0.249441,-1.59777 -0.222529,-1.190244 0.05423,-2.559608 0.613714,-3.043243 0.698553,-0.603876 0.809534,-0.409853 0.35437,0.62028 -0.441855,1.000019 -0.344488,1.222908 0.294972,0.670114 0.527506,-0.456057 0.738652,-1.329595 0.467216,-1.943907 -0.635882,-1.439148 1.235313,-4.634248 2.217284,-3.785366 0.410707,0.355028 0.646464,-0.03757 0.52265,-0.872276 -0.180555,-1.217195 3.464477,-1.577808 18.413349,-1.824842 4.67744,-0.07727 8.212617,-0.129733 10.878547,-0.108038 z m 313.197284,0.01418 c 6.44184,-0.02283 11.43346,0.11527 12.17131,0.368284 3.38469,1.160738 3.40405,10.013031 0.0316,14.407662 -1.60255,2.088307 -2.99193,2.242975 -20.35942,2.242975 -10.25197,0 -18.7991,-0.388502 -18.99341,-0.861191 -0.19431,-0.472688 0.42956,-4.210658 1.38581,-8.307313 l 1.73818,-7.448901 17.20375,-0.323992 c 2.36559,-0.04452 4.67483,-0.06989 6.82211,-0.07755 z m -120.84988,4.413954 -1.71247,7.734117 c -0.94213,4.254213 -2.8568,12.118653 -4.2544,17.475829 -1.39761,5.357161 -3.11492,12.316958 -3.8169,15.46823 -0.70198,3.151278 -1.75267,7.277762 -2.33409,9.168516 -1.30264,4.236165 -5.07912,19.486585 -7.03393,28.402723 l -1.4551,6.62924 7.75653,-0.32676 7.75456,-0.32676 4.31777,-17.763803 c 9.12237,-37.532485 10.60625,-43.051417 12.25247,-45.576729 1.65565,-2.539788 2.04439,-2.594868 15.66946,-2.290044 l 13.97088,0.312904 0.25538,3.680138 c 0.24446,3.536885 -1.34533,10.746693 -10.04707,45.593345 -2.04601,8.193319 -3.72183,15.283509 -3.72385,15.756209 -0.002,0.47269 3.45553,0.85843 7.68131,0.85843 h 7.68327 l 0.85525,-4.29489 c 0.47035,-2.36346 2.19401,-9.45366 3.83075,-15.756213 5.36914,-20.674815 7.06788,-27.410596 8.6672,-34.378459 0.86797,-3.781537 1.95846,-7.78873 2.42318,-8.905446 1.19353,-2.86806 1.93392,-11.568326 1.29078,-15.152551 -1.04869,-5.844312 -3.48302,-6.308026 -33.09891,-6.308026 z m 200.68992,0 c -29.06733,0.0014 -29.23967,0.05926 -31.55868,10.312156 -0.78404,3.466394 -1.7621,7.3348 -2.17373,8.595307 -0.41163,1.260508 -2.30047,8.736447 -4.19701,16.614639 -1.8965,7.878188 -3.91387,15.870285 -4.48405,17.76104 -1.90605,6.320744 -4.51376,18.783033 -4.51376,21.571343 0,3.53242 2.77722,8.49033 5.13539,9.16574 1.00485,0.28777 13.30956,0.4508 27.34386,0.36276 29.01831,-0.18208 27.37629,0.36815 30.35897,-10.16539 4.05818,-14.331826 14.40801,-56.819304 14.78255,-60.684974 0.65173,-6.726428 -0.31927,-10.041955 -3.48232,-11.890545 -2.22872,-1.302532 -7.87256,-1.643494 -27.21122,-1.642076 z m -306.02477,0.121789 c -4.10204,-0.0319 -9.31906,0.01631 -16.01195,0.110724 l -24.00804,0.340592 -2.01931,8.019334 c -1.11093,4.411785 -2.60126,10.600122 -3.31009,13.751398 -0.70883,3.151277 -1.76425,7.277761 -2.34596,9.168503 -0.58171,1.890783 -3.6491,13.751266 -6.81617,26.356359 -3.167083,12.605106 -6.012657,23.819006 -6.325205,24.921956 -0.517197,1.82514 0.132358,2.00484 7.233885,2.00484 h 7.80208 l 1.31255,-4.8681 c 0.72165,-2.67857 2.7133,-10.543025 4.42665,-17.475827 l 3.11608,-12.604966 21.65216,-0.573208 c 14.44417,-0.382235 22.2116,-1.024447 23.33494,-1.927306 3.01772,-2.425401 9.43913,-24.786819 10.01143,-34.865821 0.31613,-5.567618 0.11653,-6.749495 -1.48479,-8.836215 -1.99002,-2.593238 -4.26213,-3.426597 -16.56826,-3.522297 z m 58.32447,0.451351 c -23.96405,0 -27.91327,0.240343 -29.01078,1.775007 -1.83155,2.561083 -17.63137,66.666938 -17.63137,71.537088 0,3.88848 3.19672,8.63061 6.56672,9.73895 1.56994,0.51633 14.32326,0.99052 28.33967,1.05503 l 25.48489,0.11626 2.51227,-8.88053 2.51424,-8.880526 -22.78655,-0.304597 c -25.84105,-0.344861 -25.37264,-0.176925 -24.10307,-8.59807 l 0.73053,-4.848718 24.69895,-0.301832 24.69698,-0.304596 3.47044,-13.446788 c 1.90774,-7.396341 3.95413,-15.253324 4.5494,-17.459209 0.59527,-2.2059 1.09877,-6.893868 1.11853,-10.420148 0.0628,-11.192996 1.26497,-10.777374 -31.15085,-10.777374 z m -87.555,17.761058 h 14.2124 c 11.42451,0 14.40467,0.326686 15.19829,1.664236 1.1222,1.891336 0.48558,5.90142 -1.41946,8.935914 -1.10781,1.764616 -2.95857,2.004831 -15.42002,2.004831 -7.78886,0 -14.32294,-0.388501 -14.51925,-0.861191 -0.19631,-0.472688 0.1619,-3.308791 0.79585,-6.302497 z m 85.08233,0 c 13.13807,0 14.50755,0.187176 15.36855,2.115601 0.73154,1.638461 0.66041,3.322474 -0.31081,7.448902 l -1.25317,5.330522 h -16.28911 c -8.95836,0 -16.28521,-0.385736 -16.28319,-0.858425 0.002,-0.472688 0.40791,-2.923042 0.90077,-5.444057 1.68038,-8.595293 1.67802,-8.592543 17.86696,-8.592543 z m 247.94776,0 c 14.03539,0 14.10806,0.01418 14.57865,2.636197 0.50112,2.792762 -0.60779,8.313253 -5.87383,29.236217 -1.79468,7.130694 -3.94779,13.688803 -4.78299,14.573811 -1.16247,1.231784 -4.59188,1.594864 -14.62616,1.553466 -7.20941,-0.02978 -13.56799,-0.313473 -14.13122,-0.631353 -1.38647,-0.782531 -1.29599,-7.807062 0.15837,-12.244991 0.65085,-1.986016 1.80248,-6.705063 2.5578,-10.486601 0.75532,-3.781523 1.63272,-7.39186 1.95002,-8.022106 0.31731,-0.630262 1.04511,-3.466338 1.61743,-6.302483 0.57231,-2.836147 1.807,-6.316037 2.74389,-7.734118 1.6396,-2.481757 2.23123,-2.578039 15.80804,-2.578039 z m -84.77349,19.641279 c 7.34179,0.01772 8.87783,0.441748 9.88078,1.711302 1.97275,2.497196 1.91931,6.280521 -0.17026,12.00961 -1.11384,3.053876 -2.6359,5.180394 -4.48011,6.258191 -3.90455,2.281893 -36.27991,2.386498 -36.90193,0.119089 -0.22844,-0.832665 0.66,-5.602921 1.97378,-10.600136 l 2.38951,-9.085449 17.83529,-0.310139 c 3.93282,-0.06819 7.02568,-0.108319 9.47294,-0.1025 z"
       style="fill:#ffa500;stroke:#000000;stroke-width:0.96891445;filter:url(#filter441)" />
  </g>
</svg>
