<?xml version="1.0" encoding="UTF-8" standalone="no"?>
<!-- Created with Inkscape (http://www.inkscape.org/) -->

<svg
   xmlns:dc="http://purl.org/dc/elements/1.1/"
   xmlns:cc="http://creativecommons.org/ns#"
   xmlns:rdf="http://www.w3.org/1999/02/22-rdf-syntax-ns#"
   xmlns:svg="http://www.w3.org/2000/svg"
   xmlns="http://www.w3.org/2000/svg"
   xmlns:sodipodi="http://sodipodi.sourceforge.net/DTD/sodipodi-0.dtd"
   xmlns:inkscape="http://www.inkscape.org/namespaces/inkscape"
   version="1.1"
   id="svg1018"
   width="602.27289"
   height="152.54655"
   viewBox="0 0 602.27289 152.54655"
   sodipodi:docname="logo.svg"
   inkscape:version="0.92.4 (5da689c313, 2019-01-14)">
  <metadata
     id="metadata1024">
    <rdf:RDF>
      <cc:Work
         rdf:about="">
        <dc:format>image/svg+xml</dc:format>
        <dc:type
           rdf:resource="http://purl.org/dc/dcmitype/StillImage" />
        <dc:title></dc:title>
      </cc:Work>
    </rdf:RDF>
  </metadata>
  <defs
     id="defs1022" />
  <sodipodi:namedview
     pagecolor="#ffffff"
     bordercolor="#666666"
     borderopacity="1"
     objecttolerance="10"
     gridtolerance="10"
     guidetolerance="10"
     inkscape:pageopacity="0"
     inkscape:pageshadow="2"
     inkscape:window-width="1600"
     inkscape:window-height="838"
     id="namedview1020"
     showgrid="false"
     inkscape:snap-page="true"
     inkscape:zoom="1.7913372"
     inkscape:cx="310.62656"
     inkscape:cy="76.273273"
     inkscape:window-x="-8"
     inkscape:window-y="-8"
     inkscape:window-maximized="1"
     inkscape:current-layer="svg1018" />
  <g
     id="g1738"
     transform="translate(0.01185087,-473.96171)">
    <g
       transform="matrix(0.54377856,0,0,0.32418311,-13.910826,448.00268)"
       style="fill:#6c428a;fill-opacity:1;stroke:#0000dc;stroke-width:5.5999999;stroke-miterlimit:4;stroke-dasharray:none;stroke-opacity:1"
       id="g1052">
      <path
         style="fill:#6c428a;fill-opacity:1;stroke:#0000dc;stroke-width:5.5999999;stroke-miterlimit:4;stroke-dasharray:none;stroke-opacity:1"
         d="m 84.184211,353.32241 v -48.59407 h -27.91211 -27.91211 v -13.39781 -13.39781 h 74.815179 74.81518 l -0.10071,13.39781 -0.10071,13.39781 H 149.97869 122.1684 l -0.29098,48.28795 -0.29098,48.28795 -18.70112,0.30612 -18.701109,0.30612 z"
         id="path1028"
         inkscape:connector-curvature="0" />
      <path
         style="fill:#6c428a;fill-opacity:1;stroke:#0000dc;stroke-width:5.5999999;stroke-miterlimit:4;stroke-dasharray:none;stroke-opacity:1"
         d="m 187.6451,401.11816 c -0.40938,-0.40937 -0.74433,-28.29357 -0.74433,-61.96488 v -61.22056 h 56.34058 c 54.45742,0 56.54953,0.0782 62.59184,2.33889 6.93784,2.59578 13.36019,8.30784 15.73713,13.99665 2.17401,5.20314 3.22725,28.38765 1.66584,36.66916 -1.59728,8.47172 -7.4759,17.49731 -14.15564,21.73347 -2.80829,1.78097 -8.19675,3.77572 -12.28132,4.54642 -4.0027,0.75526 -7.13048,1.78354 -6.95063,2.28507 0.17986,0.50153 5.42628,4.83674 11.65872,9.63379 20.50685,15.78391 39.35955,31.03704 39.4144,31.88895 0.0297,0.46055 -9.94541,0.83737 -22.16683,0.83737 h -22.22077 l -15.46058,-12.03082 c -8.50332,-6.61694 -18.97751,-14.75899 -23.27598,-18.09343 -4.29846,-3.33444 -9.57385,-7.55882 -11.72308,-9.38751 l -3.9077,-3.32489 -0.55824,-13.75329 c -0.53515,-13.18427 -0.46586,-13.75516 1.67473,-13.7983 1.22813,-0.0248 10.95615,-0.003 21.61783,0.0485 25.26253,0.12189 24.71627,0.42989 24.71627,-13.93579 v -10.53604 l -4.18682,-1.21598 c -2.68671,-0.7803 -14.58753,-1.09638 -33.21541,-0.88218 l -29.02859,0.3338 -0.29098,48.28795 -0.29098,48.28795 h -17.10757 c -9.40916,0 -17.44251,-0.33495 -17.85189,-0.74433 z"
         id="path1030"
         inkscape:connector-curvature="0" />
      <path
         style="fill:#6c428a;fill-opacity:1;stroke:#0000dc;stroke-width:5.5999999;stroke-miterlimit:4;stroke-dasharray:none;stroke-opacity:1"
         d="m 347.58037,401.05278 c -0.0518,-0.47576 -0.17739,-28.38379 -0.27912,-62.01784 l -0.18496,-61.15282 18.42199,0.30442 18.42199,0.30442 v 61.40664 61.40664 l -18.14287,0.30678 c -9.97858,0.16873 -18.18524,-0.0825 -18.23703,-0.55824 z"
         id="path1032"
         inkscape:connector-curvature="0" />
      <path
         style="fill:#6c428a;fill-opacity:1;stroke:#0000dc;stroke-width:5.5999999;stroke-miterlimit:4;stroke-dasharray:none;stroke-opacity:1"
         d="m 407.61916,401.1448 c -0.42403,-0.42403 -0.77096,-28.32021 -0.77096,-61.99152 v -61.22056 h 58.61543 58.61543 v 13.39781 13.39781 h -39.63519 -39.6352 v 10.60661 10.6066 h 33.49453 33.49453 v 13.39781 13.39781 h -33.47276 -33.47275 l -0.3009,24.28354 -0.30089,24.28353 -17.93016,0.30576 c -9.86158,0.16817 -18.27708,-0.0412 -18.70111,-0.4652 z"
         id="path1034"
         inkscape:connector-curvature="0" />
      <path
         style="fill:#6c428a;fill-opacity:1;stroke:#0000dc;stroke-width:5.5999999;stroke-miterlimit:4;stroke-dasharray:none;stroke-opacity:1"
         d="m 562.03953,401.1151 c -13.45661,-2.58092 -21.02114,-7.30453 -24.7134,-15.43206 -1.8449,-4.06106 -2.03545,-8.21171 -2.0577,-44.82058 l -0.0245,-40.34507 3.07165,-5.87982 c 2.06853,-3.95962 4.84646,-7.1029 8.50622,-9.62497 10.20877,-7.03521 11.64243,-7.18205 66.72744,-6.83451 l 49.58959,0.31287 7.78666,3.9077 c 6.37209,3.19779 8.39516,4.90554 11.13613,9.40037 l 3.34946,5.49268 0.31929,39.98284 c 0.31014,38.83731 0.25033,40.14311 -2.08733,45.57715 -3.04045,7.06772 -8.9467,12.43326 -17.34525,15.75733 -6.47502,2.56275 -7.2223,2.60176 -54.01644,2.82006 -26.09782,0.12175 -48.70663,-0.0195 -50.2418,-0.31399 z m 87.08578,-61.2175 v -35.16926 h -37.96047 -37.96047 v 35.16926 35.16926 h 37.96047 37.96047 z"
         id="path1036"
         inkscape:connector-curvature="0" />
      <path
         style="fill:#6c428a;fill-opacity:1;stroke:#0000dc;stroke-width:5.5999999;stroke-miterlimit:4;stroke-dasharray:none;stroke-opacity:1"
         d="m 701.25519,401.14543 c -0.42438,-0.42437 -0.77159,-28.32084 -0.77159,-61.99215 v -61.22056 h 56.37048 c 52.94913,0 56.71403,0.13054 62.03085,2.15077 8.00803,3.04281 12.64795,6.95214 15.59952,13.14327 3.48325,7.30633 4.55529,31.26668 1.81995,40.67592 -3.64429,12.53592 -12.77385,20.78554 -25.88716,23.39204 -3.96939,0.78899 -7.18847,1.71917 -7.1535,2.06707 0.035,0.34789 2.42146,2.43598 5.3033,4.6402 9.81231,7.50506 44.31047,34.78416 45.9914,36.36725 1.44567,1.36153 -1.48988,1.55622 -21.46334,1.42339 l -23.13808,-0.15388 -24.2964,-18.99043 c -13.36303,-10.44474 -25.68531,-20.15911 -27.38285,-21.5875 -3.06309,-2.57741 -3.08645,-2.7011 -3.08778,-16.34608 l -10e-4,-13.74901 21.30583,0.34771 c 27.49123,0.44866 26.70568,0.85243 26.70568,-13.72645 v -10.53604 l -4.18682,-1.21598 c -2.68671,-0.7803 -14.58753,-1.09638 -33.21541,-0.88218 l -29.02859,0.3338 -0.24286,48.00882 -0.24286,48.00883 -17.12842,0.30639 c -9.42063,0.16852 -17.47564,-0.0409 -17.90001,-0.4652 z"
         id="path1038"
         inkscape:connector-curvature="0" />
      <path
         style="fill:#6c428a;fill-opacity:1;stroke:#0000dc;stroke-width:5.5999999;stroke-miterlimit:4;stroke-dasharray:none;stroke-opacity:1"
         d="m 874.91212,400.17414 c -3.23604,-0.89467 -7.30641,-2.36239 -9.04526,-3.26159 -4.13522,-2.1384 -9.93517,-8.8031 -11.01317,-12.65517 -0.46942,-1.67742 -0.85349,-21.89053 -0.85349,-44.91802 0,-40.90973 0.0558,-41.97247 2.43857,-46.42463 3.04119,-5.68248 8.7397,-10.10118 16.58108,-12.8572 5.58268,-1.96216 9.70133,-2.12398 53.80306,-2.1139 l 47.7576,0.0109 5.58243,2.6391 c 12.01041,5.67793 15.07253,11.93477 15.07253,30.79776 v 13.43367 h -17.3055 -17.30551 v -10.06404 -10.06404 l -35.44838,0.2948 -35.44838,0.29481 -0.29503,34.89013 -0.29502,34.89014 h 35.7434 35.74341 v -10.6066 -10.6066 h 17.30551 17.3055 l 0.22393,11.44396 c 0.32206,16.45894 -0.049,19.89492 -2.61869,24.25027 -2.67347,4.53117 -5.14226,6.46906 -12.08771,9.48829 -4.72947,2.05593 -8.12049,2.21618 -52.50659,2.48126 -38.77762,0.23159 -48.526,-0.014 -53.33429,-1.3433 z"
         id="path1040"
         inkscape:connector-curvature="0" />
      <path
         style="fill:#6c428a;fill-opacity:1;stroke:#0000dc;stroke-width:5.5999999;stroke-miterlimit:4;stroke-dasharray:none;stroke-opacity:1"
         d="m 1007.5168,339.8976 v -61.96488 h 61.4066 61.4067 v 13.39781 13.39781 h -41.8682 -41.8681 v 10.60661 10.6066 h 29.5868 29.5868 v 13.39781 13.39781 h -29.5868 -29.5868 v 11.16485 11.16484 h 41.8681 41.8682 v 13.39781 13.39782 h -61.4067 -61.4066 z"
         id="path1042"
         inkscape:connector-curvature="0" />
    </g>
    <path
       inkscape:connector-curvature="0"
       id="path1597"
       d="m 250.26887,531.49827 c 1.47213,-1.55058 5.49602,-5.66987 11.40242,-11.67274 1.76283,-1.79163 4.07387,-4.15332 5.13564,-5.24821 2.98595,-3.07909 15.00291,-15.39296 22.07612,-22.62158 3.50623,-3.58326 8.58285,-8.83025 11.28139,-11.65997 2.69853,-2.82973 5.07945,-5.1507 5.29092,-5.15773 0.21147,-0.007 3.94721,3.69265 8.30164,8.22149 4.35443,4.52884 9.33995,9.70014 11.07894,11.49177 3.36413,3.46598 14.20471,14.68892 27.09507,28.05077 4.32103,4.47907 8.3489,8.59167 8.95083,9.13912 l 1.09442,0.99535 h -7.54703 -7.54703 l -1.43333,-1.53827 c -1.35542,-1.45467 -5.77572,-5.95477 -15.24854,-15.52382 -2.29386,-2.31717 -4.35858,-4.51599 -4.58829,-4.88627 -0.2297,-0.37027 -0.59988,-0.75467 -0.82261,-0.8542 -0.38427,-0.17172 -10.44016,-10.30654 -16.28829,-16.41614 l -2.7215,-2.84318 -1.08199,0.85248 c -0.5951,0.46887 -2.88564,2.72555 -5.09008,5.01486 -2.20445,2.2893 -5.70188,5.89722 -7.77208,8.0176 -2.07019,2.12037 -9.09147,9.32166 -15.60284,16.00286 l -11.83884,12.14763 -7.79269,0.0132 -7.79269,0.0132 z"
       style="fill:#6c428a;fill-opacity:1;stroke:#0000dc;stroke-width:2.35122538;stroke-miterlimit:4;stroke-dasharray:none;stroke-opacity:1" />
    <path
       inkscape:connector-curvature="0"
       id="path1599"
       d="m 159.83135,624.88018 c 0.16263,-0.24884 2.73597,-2.977 5.71853,-6.06259 2.98257,-3.08558 8.68401,-8.98981 12.66987,-13.12052 l 7.24702,-7.51036 h 7.42644 7.42643 l -2.08085,2.26215 c -1.14447,1.24419 -5.05633,5.51967 -8.69304,9.50107 l -6.61217,7.23891 122.33572,0.0914 c 67.28465,0.0503 122.44409,0.0268 122.57654,-0.0522 0.13246,-0.079 -1.96144,-2.46079 -4.6531,-5.29294 -2.69167,-2.83216 -4.89394,-5.19762 -4.89394,-5.25659 0,-0.059 -1.2182,-1.33561 -2.7071,-2.83698 -1.48891,-1.50137 -3.27029,-3.3879 -3.95862,-4.19228 l -1.25153,-1.4625 h 7.57164 7.57163 l 2.122,2.26215 c 1.16711,1.24419 2.11336,2.40683 2.10278,2.58364 -0.0105,0.17682 0.24659,0.42113 0.57148,0.54292 0.32488,0.12179 3.58093,3.39751 7.23566,7.27937 3.65474,3.88187 7.27535,7.70944 8.04579,8.50572 0.77045,0.79628 2.34388,2.46575 3.49651,3.70994 l 2.09568,2.26216 H 305.36519 c -116.41659,0 -145.7699,-0.0913 -145.53384,-0.45243 z"
       style="fill:#6c428a;fill-opacity:1;stroke:#0000dc;stroke-width:2.35122538;stroke-miterlimit:4;stroke-dasharray:none;stroke-opacity:1" />
    <path
       inkscape:connector-curvature="0"
       id="path1601"
       d="m 30.469412,591.10193 c -1.770281,-1.30014 -3.370435,-2.59963 -3.555897,-2.88776 -0.549326,-0.85343 0.8182,-0.60056 3.039111,0.56196 3.537248,1.85154 4.039038,1.57876 4.039038,-2.19572 v -3.28155 l 1.669581,0.11453 c 0.918269,0.063 1.601279,0.23668 1.5178,0.38599 -0.08348,0.1493 -0.15178,2.38884 -0.15178,4.97675 v 4.70529 l -1.669581,-0.008 c -1.315255,-0.006 -2.352663,-0.50947 -4.888272,-2.37168 z"
       style="fill:#0000dc;fill-opacity:1;stroke:none;stroke-width:0.46876901" />
    <path
       inkscape:connector-curvature="0"
       id="path1603"
       d="m 18.813657,588.63735 v -4.84407 l 1.480936,-0.16877 c 1.434834,-0.16353 3.372599,0.79353 7.193759,3.55297 0.994752,0.71836 0.989396,0.75159 -0.113312,0.70316 -0.63658,-0.0279 -1.891382,-0.57085 -2.788449,-1.20643 -0.897067,-0.63557 -1.879948,-1.15559 -2.184182,-1.15559 -0.304232,0 -0.553151,1.79163 -0.553151,3.9814 v 3.9814 h -1.5178 -1.517801 z"
       style="fill:#0000dc;fill-opacity:1;stroke:none;stroke-width:0.46876901" />
    <path
       inkscape:connector-curvature="0"
       id="path1605"
       d="m 49.776791,588.82044 c 0,-3.56923 0.200502,-4.76017 0.856011,-5.0845 1.172136,-0.57994 14.518686,-0.46674 15.898704,0.13485 0.849447,0.37029 1.026757,1.19151 1.085327,5.02668 0.0691,4.52495 0.05237,4.58408 -1.296014,4.58401 -1.251023,-6e-5 -1.366021,-0.16765 -1.366021,-1.99076 v -1.9907 h -6.374765 -6.37476 v 1.9907 c 0,1.7494 -0.147179,1.9907 -1.214241,1.9907 -1.15138,0 -1.214241,-0.2413 -1.214241,-4.66098 z m 15.178007,-2.03501 v -1.26681 h -6.374765 -6.37476 v 1.26681 1.2668 h 6.37476 6.374765 z"
       style="fill:#0000dc;fill-opacity:1;stroke:none;stroke-width:0.46876901" />
    <path
       inkscape:connector-curvature="0"
       id="path1607"
       d="m 80.268304,588.42691 0.16806,-4.89899 3.439502,-0.10764 3.439498,-0.10763 1.011167,2.09833 c 2.671785,5.54437 3.066302,6.25974 3.452401,6.26021 0.227919,2.7e-4 1.43706,-1.85192 2.686978,-4.116 l 2.272582,-4.1165 3.535998,-0.0476 3.536,-0.0476 v 5.06901 5.06902 h -1.5178 -1.5178 v -3.9814 c 0,-3.66001 -0.0924,-3.9814 -1.145122,-3.9814 -0.910558,0 -1.625523,0.81556 -3.490308,3.9814 -2.296856,3.89936 -2.383594,3.9814 -4.209548,3.9814 -1.815176,0 -1.928299,-0.10266 -4.287574,-3.89092 -1.978805,-3.17735 -2.666919,-3.91212 -3.752127,-4.00657 -1.298418,-0.113 -1.328924,-0.0242 -1.328924,3.86842 0,3.77853 -0.06349,3.98123 -1.230527,3.92882 -1.179766,-0.053 -1.223589,-0.25734 -1.062456,-4.95426 z"
       style="fill:#0000dc;fill-opacity:1;stroke:none;stroke-width:0.46876901" />
    <path
       inkscape:connector-curvature="0"
       id="path1609"
       d="m 114.86009,593.04708 c -0.4754,-0.28341 -0.72855,-1.77313 -0.72855,-4.28724 0,-5.19156 -5.4e-4,-5.19122 10.07928,-5.35193 l 7.52721,-0.12 v 1.11535 1.11536 h -6.67833 -6.67832 v 3.25751 3.2575 h 6.67832 c 6.27358,0 6.67833,0.0439 6.67833,0.7239 0,0.6876 -0.40475,0.72389 -8.0747,0.72389 -5.47083,0 -8.30963,-0.14006 -8.80324,-0.43434 z"
       style="fill:#0000dc;fill-opacity:1;stroke:none;stroke-width:0.46876901" />
    <path
       inkscape:connector-curvature="0"
       id="path1611"
       d="m 144.62264,592.91797 c -1.24789,-0.52108 -1.34932,-0.8476 -1.34932,-4.34334 0,-5.24618 0.15363,-5.32961 9.51625,-5.1676 9.03973,0.15643 9.30447,0.30587 9.30447,5.25202 0,4.95326 0.23586,4.82237 -8.68952,4.82237 -5.74443,0 -7.73901,-0.12797 -8.78188,-0.56345 z m 12.90363,-4.14184 -0.0144,-3.07654 -4.99438,-0.10512 -4.99437,-0.10513 v 3.28679 3.28678 l 5.00874,-0.10513 5.00874,-0.10512 z"
       style="fill:#0000dc;fill-opacity:1;stroke:none;stroke-width:0.46876901" />
    <path
       inkscape:connector-curvature="0"
       id="path1613"
       d="m 183.97457,589.33643 c -1.26423,-0.90815 -0.51302,-1.82711 1.4936,-1.82711 2.00662,0 2.75784,0.91896 1.4936,1.82711 -0.93216,0.66961 -2.05503,0.66961 -2.9872,0 z"
       style="fill:#0000dc;fill-opacity:1;stroke:none;stroke-width:0.46876901" />
    <path
       inkscape:connector-curvature="0"
       id="path1615"
       d="m 209.44943,592.75753 c 0,-0.68193 0.40474,-0.7239 6.98188,-0.7239 h 6.98188 v -1.2668 -1.26681 h -5.97711 c -7.30286,0 -7.98665,-0.288 -7.98665,-3.36376 0,-1.64641 0.22654,-2.11224 1.17432,-2.41464 0.64588,-0.20607 4.33414,-0.37467 8.19612,-0.37467 h 7.0218 v 1.08583 1.08584 h -6.37476 -6.37477 v 0.90486 c 0,0.49768 -0.0683,1.02702 -0.15178,1.17632 -0.0835,0.14931 3.12668,0.3529 7.13367,0.45243 l 7.28544,0.18098 0.18361,2.11172 c 0.10829,1.24549 -0.10899,2.32191 -0.52968,2.62411 -0.55243,0.39683 -2.61328,0.51238 -9.13863,0.51238 -8.0206,0 -8.42534,-0.0348 -8.42534,-0.72389 z"
       style="fill:#0000dc;fill-opacity:1;stroke:none;stroke-width:0.46876901" />
    <path
       inkscape:connector-curvature="0"
       id="path1617"
       d="m 241.74822,593.04708 c -1.03577,-0.61749 -1.00876,-8.8254 0.0303,-9.22634 0.41739,-0.16105 4.51545,-0.34916 9.1068,-0.41802 l 8.34791,-0.12519 v 1.12054 1.12055 h -7.32392 -7.32391 l 0.19025,1.17632 0.19025,1.17632 5.3123,0.10458 c 4.77498,0.094 5.3123,0.17495 5.3123,0.80029 0,0.62489 -0.5368,0.70635 -5.27394,0.80028 l -5.27394,0.10458 -0.22386,1.17632 -0.22387,1.17632 h 7.31916 c 6.91443,0 7.31918,0.04 7.31918,0.7239 0,0.68892 -0.40475,0.72389 -8.37827,0.72389 -5.70692,0 -8.61054,-0.13849 -9.1068,-0.43434 z"
       style="fill:#0000dc;fill-opacity:1;stroke:none;stroke-width:0.46876901" />
    <path
       inkscape:connector-curvature="0"
       id="path1619"
       d="m 273.20394,592.94345 c -0.52795,-0.37925 -0.6808,-1.72418 -0.51806,-4.55856 0.29724,-5.17737 0.006,-5.03794 10.51846,-5.03794 h 7.95384 l -0.0242,1.08583 -0.0242,1.08584 h -7.43854 -7.43855 v 3.25751 3.2575 h 5.80611 5.80611 l -0.19025,-1.17632 c -0.18552,-1.14712 -0.26936,-1.17903 -3.37762,-1.28572 -2.60474,-0.0894 -3.18739,-0.22928 -3.18739,-0.76517 0,-0.57631 0.6253,-0.66398 5.16053,-0.72357 l 5.16052,-0.0678 v 2.13417 c 0,3.16526 -0.49297,3.33221 -9.83917,3.33221 -6.00031,0 -7.77772,-0.11428 -8.36755,-0.53797 z"
       style="fill:#0000dc;fill-opacity:1;stroke:none;stroke-width:0.46876901" />
    <path
       inkscape:connector-curvature="0"
       id="path1621"
       d="m 305.98155,588.82044 c 0,-3.63691 0.19403,-4.75697 0.88313,-5.09792 1.36376,-0.67475 15.36754,-0.37236 16.13021,0.34832 0.316,0.2986 0.57873,2.53814 0.58385,4.97675 0.009,4.19438 -0.0563,4.43383 -1.20495,4.43383 -1.06796,0 -1.21424,-0.2413 -1.21424,-2.00295 v -2.00294 l -6.52654,0.10273 -6.52654,0.10273 -0.18351,1.90021 c -0.13201,1.36692 -0.43018,1.90022 -1.06246,1.90022 -0.72169,0 -0.87895,-0.83396 -0.87895,-4.66098 z m 15.178,-2.03501 v -1.26681 h -6.67832 -6.67832 v 1.02551 c 0,0.56403 0.18213,1.13409 0.40474,1.26681 0.22262,0.13271 3.22786,0.24129 6.67833,0.24129 h 6.27357 z"
       style="fill:#0000dc;fill-opacity:1;stroke:none;stroke-width:0.46876901" />
    <path
       inkscape:connector-curvature="0"
       id="path1623"
       d="m 343.43455,589.80629 c -1.48544,-0.4956 -1.31727,-2.01207 0.25615,-2.30978 1.67484,-0.31691 3.22763,0.58352 2.70364,1.56777 -0.48278,0.90682 -1.615,1.19067 -2.95979,0.74201 z"
       style="fill:#0000dc;fill-opacity:1;stroke:none;stroke-width:0.46876901" />
    <path
       inkscape:connector-curvature="0"
       id="path1625"
       d="m 367.3007,588.43822 v -5.09127 h 1.72726 c 0.95623,0 2.2178,0.32314 2.82614,0.72389 0.60438,0.39814 0.98402,0.72389 0.84366,0.72389 -0.14037,0 1.52902,1.14013 3.70974,2.53362 5.44923,3.48207 6.0712,3.40791 6.0712,-0.72389 0,-3.23338 0.0113,-3.25751 1.5178,-3.25751 h 1.5178 v 5.06723 5.06724 l -1.66958,-0.0127 c -1.37861,-0.0105 -2.61574,-0.70272 -7.09868,-3.97209 -2.98601,-2.17767 -5.55607,-3.8837 -5.71125,-3.79119 -0.15519,0.0925 -0.30753,1.83924 -0.33854,3.88161 l -0.0564,3.71339 -1.66958,0.11453 -1.66958,0.11453 z"
       style="fill:#0000dc;fill-opacity:1;stroke:none;stroke-width:0.46876901" />
    <path
       inkscape:connector-curvature="0"
       id="path1627"
       d="m 399.47807,588.39125 v -5.09017 l 1.92398,0.11342 1.92398,0.11342 0.0492,4.97663 0.0492,4.97663 -1.97315,1.2e-4 -1.97314,1.2e-4 z"
       style="fill:#0000dc;fill-opacity:1;stroke:none;stroke-width:0.46876901" />
    <path
       inkscape:connector-curvature="0"
       id="path1629"
       d="m 417.69168,588.45942 v -5.02199 h 1.52966 c 1.1631,0 2.65439,0.76284 6.22299,3.18325 3.17998,2.15682 5.13378,3.1926 6.05933,3.21226 1.31904,0.028 1.36602,-0.083 1.36602,-3.22848 0,-3.23338 0.0113,-3.25751 1.5178,-3.25751 h 1.5178 v 5.06723 5.06724 h -1.68823 c -1.41115,0 -2.58197,-0.64935 -7.13366,-3.95635 -2.99499,-2.17599 -5.65033,-3.96761 -5.90077,-3.98139 -0.25044,-0.0138 -0.45534,1.76657 -0.45534,3.95634 v 3.9814 h -1.5178 -1.5178 z"
       style="fill:#0000dc;fill-opacity:1;stroke:none;stroke-width:0.46876901" />
    <path
       inkscape:connector-curvature="0"
       id="path1631"
       d="m 454.1189,589.51893 v -3.96248 l -3.18739,-0.1094 c -2.94619,-0.10113 -3.18738,-0.17788 -3.18738,-1.01427 v -0.90486 h 8.80324 8.80325 v 0.90486 c 0,0.84769 -0.22057,0.91172 -3.49094,1.01341 l -3.49094,0.10855 v 3.96334 3.96334 h -2.12493 -2.12491 z"
       style="fill:#0000dc;fill-opacity:1;stroke:none;stroke-width:0.46876901" />
    <path
       inkscape:connector-curvature="0"
       id="path1633"
       d="m 477.32411,588.50467 0.16891,-4.97675 h 7.58901 7.589 v 0.90486 c 0,0.89247 -0.0769,0.90629 -5.61586,1.00893 l -5.61587,0.10407 v 1.25323 1.25322 h 5.39913 c 5.21361,0 6.13616,0.19492 6.13616,1.29642 0,0.0833 -2.59544,0.15137 -5.76764,0.15137 h -5.76765 v 1.26681 1.2668 h 5.76765 c 5.36289,0 5.76764,0.0508 5.76764,0.7239 0,0.68685 -0.40475,0.72389 -7.9097,0.72389 h -7.90969 z"
       style="fill:#0000dc;fill-opacity:1;stroke:none;stroke-width:0.46876901" />
    <path
       inkscape:connector-curvature="0"
       id="path1635"
       d="m 504.61872,588.50467 0.19472,-4.97675 1.55714,-0.10806 c 1.29693,-0.09 2.36042,0.44162 6.36386,3.18119 6.35728,4.35032 7.18761,4.33799 7.43299,-0.11036 0.16871,-3.05838 0.23148,-3.18561 1.5178,-3.07654 1.30043,0.11026 1.34702,0.26725 1.51073,5.09052 l 0.16891,4.97675 h -1.78196 c -1.40903,0 -2.33379,-0.39693 -4.41875,-1.89664 -3.30797,-2.37942 -5.22095,-3.72083 -7.32418,-5.13585 l -1.65179,-1.11129 -0.0178,4.07189 -0.0178,4.07189 h -1.8643 -1.8643 z"
       style="fill:#0000dc;fill-opacity:1;stroke:none;stroke-width:0.46876901" />
    <path
       inkscape:connector-curvature="0"
       id="path1637"
       d="m 536.71559,588.53606 0.24574,-4.99072 7.47978,-0.1476 c 9.63369,-0.19012 10.98003,0.42837 10.98003,5.044 0,4.94211 -0.2913,5.08503 -10.36447,5.08503 h -8.58687 z m 15.27115,0.12797 v -3.32715 h -6.01016 -6.01017 v 3.32715 3.32714 h 6.01017 6.01016 z"
       style="fill:#0000dc;fill-opacity:1;stroke:none;stroke-width:0.66293949" />
    <path
       inkscape:connector-curvature="0"
       id="path1639"
       d="m 569.35998,592.93015 c -1.40431,-0.8372 -1.4284,-8.19256 -0.0294,-9.0265 1.40709,-0.83887 13.64444,-0.81119 15.58617,0.0353 1.24993,0.54489 1.44922,1.34872 1.23736,4.99072 l -0.25258,4.34121 -7.74074,0.14558 c -5.28646,0.0994 -8.07686,-0.0548 -8.80068,-0.48627 z m 12.67771,-4.26612 v -3.32715 h -5.1516 -5.15159 v 3.32715 3.32714 h 5.15159 5.1516 z"
       style="fill:#0000dc;fill-opacity:1;stroke:none;stroke-width:0.66293949" />
  </g>
</svg>
