<?xml version="1.0" encoding="UTF-8" standalone="no"?>
<!-- Generator: Adobe Illustrator 16.0.3, SVG Export Plug-In . SVG Version: 6.00 Build 0)  -->

<svg
   xmlns:dc="http://purl.org/dc/elements/1.1/"
   xmlns:cc="http://creativecommons.org/ns#"
   xmlns:rdf="http://www.w3.org/1999/02/22-rdf-syntax-ns#"
   xmlns:svg="http://www.w3.org/2000/svg"
   xmlns="http://www.w3.org/2000/svg"
   xmlns:sodipodi="http://sodipodi.sourceforge.net/DTD/sodipodi-0.dtd"
   xmlns:inkscape="http://www.inkscape.org/namespaces/inkscape"
   version="1.1"
   id="Layer_1"
   x="0px"
   y="0px"
   width="601.1402"
   height="109.04798"
   viewBox="0 0 601.14018 109.04799"
   enable-background="new 0 0 566.929 102.84"
   xml:space="preserve"
   sodipodi:docname="logo.svg"
   inkscape:version="0.92.4 (5da689c313, 2019-01-14)"><metadata
   id="metadata50"><rdf:RDF><cc:Work
       rdf:about=""><dc:format>image/svg+xml</dc:format><dc:type
         rdf:resource="http://purl.org/dc/dcmitype/StillImage" /><dc:title></dc:title></cc:Work></rdf:RDF></metadata><defs
   id="defs48">
	
	

			
			
			
			
			
			
			
			
			
			
		</defs><sodipodi:namedview
   pagecolor="#ffffff"
   bordercolor="#666666"
   borderopacity="1"
   objecttolerance="10"
   gridtolerance="10"
   guidetolerance="10"
   inkscape:pageopacity="0"
   inkscape:pageshadow="2"
   inkscape:window-width="1600"
   inkscape:window-height="838"
   id="namedview46"
   showgrid="false"
   inkscape:zoom="1.7361832"
   inkscape:cx="283.46451"
   inkscape:cy="57.627982"
   inkscape:window-x="-8"
   inkscape:window-y="-8"
   inkscape:window-maximized="1"
   inkscape:current-layer="g41" />
<g
   id="g41"
   transform="matrix(1.0603448,0,0,1.0603448,-5.7597608,-108.2835)">
		
		
		
	<g
   id="g1071"><g
     id="g1005"><g
       id="g772"><g
         transform="translate(5.4319697,102.12103)"
         id="g18">
		<g
   id="layer2">
			<path
   id="polygon3542"
   d="m 39.613,32.324 11.878,-4.552 11.338,4.341 3.036,-3.406 V 5.553 l -14.374,5.574 z"
   style="fill:#0222a9" />
			<path
   id="polygon3558"
   d="M 88.391,25.369 102.98,19.742 V 81.161 L 88.391,87.288 66.938,59.29 v 37.017 l -15.447,6.535 V 39.606 L 66.938,33.69 88.391,64.354 Z"
   style="fill:#011da9" />
			<path
   id="polygon3560"
   d="M 28.277,81.227 14.589,54.653 v 32.635 z"
   style="fill:#0222a9" />
		</g>
		<g
   id="layer3">
			<path
   id="polygon3538"
   d="M 39.613,32.324 51.491,11.127 37.117,5.535 29.178,19.742 36.044,33.689 Z"
   style="fill:#069330" />
			<path
   id="polygon3540"
   d="M 88.391,25.369 V 64.354 L 66.938,33.69 62.829,32.113 73.807,19.742 Z"
   style="fill:#069330" />
			<path
   id="polygon3552"
   d="M 51.491,39.606 36.044,33.689 V 65.792 L 14.589,25.369 0,19.742 v 61.419 l 14.589,6.127 V 54.653 l 21.455,41.654 15.447,6.535 z"
   style="fill:#069330" />
		</g>
		<g
   id="layer4">
			<path
   id="polygon3554"
   d="m 29.178,19.742 6.866,13.947 V 65.792 L 14.589,25.369 Z"
   style="fill:#fe2015" />
			<path
   id="polygon3556"
   d="M 71.321,80.731 88.391,87.288 66.938,59.29 v 15.296 z"
   style="fill:#fe2015" />
		</g>
		<g
   id="layer5">
			<path
   id="polygon3544"
   d="M 51.491,27.772 66.938,33.689 51.491,39.606 36.044,33.689 Z"
   style="fill:#ffc001" />
			<path
   id="polygon3546"
   d="M 88.391,25.369 73.802,19.742 88.391,14.129 102.98,19.742 Z"
   style="fill:#ffc001" />
			<path
   id="polygon3548"
   d="M 14.589,25.369 0,19.742 14.589,14.129 29.178,19.742 Z"
   style="fill:#ffc001" />
			<path
   id="polygon3550"
   d="M 51.491,11.127 65.865,5.553 51.491,0 37.117,5.535 Z"
   style="fill:#ffc001" />
		</g>
	</g><g
         transform="matrix(1.3419839,0,0,1,-24.884919,68.745932)"
         id="g705"><g
           id="g709"><path
             id="path697"
             d="m 194.9472,85.898909 h 27.23314 c 23.22739,0 30.62004,10.197 30.62004,24.276001 0,14.342 -11.40742,23.225 -29.24569,23.225 H 194.9472 Z m 22.50154,36.707001 h 2.24074 c 3.6989,0 6.17429,-0.879 7.62213,-2.787 1.52649,-1.975 1.69925,-5.572 1.69925,-10.172 0,-4.604 -0.17405,-8.194 -1.69925,-10.172001 -1.44784,-1.91 -3.92323,-2.789 -7.62213,-2.789 h -2.24074 z"
             inkscape:connector-curvature="0"
             style="fill:#0124a6;stroke-width:1.13545787" /><path
             style="fill:#0124a6;stroke-width:1.13545787"
             inkscape:connector-curvature="0"
             d="m 255.561,85.898909 h 27.23314 c 23.22739,0 30.62004,10.197 30.62004,24.276001 0,14.342 -11.40742,23.225 -29.24569,23.225 H 255.561 Z m 22.50154,36.707001 h 2.24074 c 3.6989,0 6.17429,-0.879 7.62213,-2.787 1.52649,-1.975 1.69925,-5.572 1.69925,-10.172 0,-4.604 -0.17405,-8.194 -1.69925,-10.172001 -1.44784,-1.91 -3.92323,-2.789 -7.62213,-2.789 h -2.24074 z"
             id="path701" /></g></g><g
         transform="matrix(1.8667237,0,0,1.2354408,-833.04169,131.79149)"
         id="layer7">
			<path
   id="path3532"
   d="m 530.583,27.436 c -0.949,-0.083 -1.871,-0.044 -3.158,0.014 -7.521,0.348 -10.563,3.553 -11.594,7.174 h 0.182 c 1.873,-1.637 4.188,-2.401 7.289,-2.401 5.965,0 11.414,4.338 11.414,12.476 0,7.788 -5.986,13.852 -14.02,13.852 -10.584,0 -15.186,-8.083 -15.186,-16.75 0,-7.041 2.498,-13.004 6.598,-16.85 3.902,-3.615 8.932,-5.441 15.09,-5.582 1.631,-0.094 2.6,0 3.385,0.071 z m -10.021,23.456 c 2.439,0 3.918,-2.491 3.918,-5.673 -0.02,-2.686 -1.25,-5.613 -4.52,-5.613 -1.998,0 -3.555,1.266 -4.143,2.795 -0.227,0.469 -0.313,1.137 -0.313,2.27 0.209,3.035 1.672,6.222 4.998,6.222 h 0.06 z"
   inkscape:connector-curvature="0"
   style="fill:#ff2d1e" />
			<path
   id="path3534"
   d="m 553.365,57.911 v -8.524 h -15.846 v -6.811 l 12.723,-22.671 h 12.66 v 21.673 h 4.027 v 7.809 h -4.027 v 8.524 z m 0,-16.333 v -6.531 c 0,-2.414 0.145,-4.922 0.268,-7.565 h -0.207 c -1.178,2.565 -2.203,5.007 -3.543,7.657 l -3.113,6.326 -0.035,0.115 z"
   inkscape:connector-curvature="0"
   style="fill:#ff2d1e" />
		</g></g><path
       style="fill:#fe2015;fill-opacity:1;stroke-width:0.54319698"
       d="m 39.909949,164.49337 c -0.236623,-0.37345 -4.751727,-8.82078 -10.033564,-18.77185 -9.146214,-17.23163 -9.547428,-18.11465 -8.428783,-18.55069 10.082126,-3.92998 12.95393,-4.98876 13.099301,-4.82947 0.09539,0.10452 1.667915,3.18066 3.494494,6.83586 l 3.321054,6.64581 v 14.67467 c 0,13.79182 -0.222605,15.93674 -1.452502,13.99567 z"
       id="path778"
       inkscape:connector-curvature="0" /><path
       style="fill:#fe2015;fill-opacity:1;stroke-width:0.54319698"
       d="m 84.290229,185.6127 c -7.246727,-2.81117 -7.340556,-2.86952 -9.641746,-5.9959 l -2.323804,-3.15711 v -6.77532 c 0,-5.16858 0.160566,-6.7218 0.677074,-6.54963 0.37239,0.12413 2.755667,2.93363 5.296171,6.24333 2.540503,3.3097 6.889124,8.97282 9.663603,12.5847 2.774477,3.61189 4.729986,6.54944 4.345575,6.5279 -0.384412,-0.0215 -3.992005,-1.31663 -8.016873,-2.87797 z"
       id="path780"
       inkscape:connector-curvature="0" /><path
       style="fill:#fe2015;fill-opacity:1;stroke-width:0.54319698"
       d="m 128.93049,202.94369 c -7.41456,-1.68116 -13.48165,-5.93519 -16.28078,-11.41551 -1.99697,-3.90977 -2.28924,-9.74584 -0.74303,-14.83641 3.78164,-12.45021 17.01321,-19.78707 37.14457,-20.59653 l 8.01215,-0.32216 v 4.97124 4.97124 h -5.18326 c -6.07382,0 -12.46462,1.19536 -16.01821,2.9961 -2.35716,1.19446 -5.95837,4.60979 -5.95837,5.65082 0,0.25363 1.52774,-0.16636 3.39498,-0.93332 4.73776,-1.94602 14.00284,-2.06688 19.69089,-0.25686 7.57618,2.41085 11.71984,7.2166 11.75051,13.62807 0.0341,7.11493 -4.37216,11.91681 -14.16877,15.44117 -4.0059,1.44113 -16.58187,1.84918 -21.64068,0.70215 z m 11.9539,-8.43127 c 0.51244,-0.004 1.78816,-0.7594 2.83496,-1.6785 4.53048,-3.97781 2.51831,-10.54981 -3.65291,-11.93087 -3.45257,-0.77265 -6.59211,-0.0839 -9.05179,1.98579 -3.88639,3.27018 -0.90351,10.19791 5.01348,11.64382 0.96348,0.23544 2.24066,0.32887 2.83818,0.20763 0.59751,-0.12125 1.50565,-0.22379 2.01808,-0.22787 z"
       id="path782"
       inkscape:connector-curvature="0" /><path
       style="fill:#fe2015;fill-opacity:1;stroke-width:0.54319698"
       d="m 199.97597,198.03578 v -5.16037 h -14.66632 -14.66632 v -4.29053 -4.29054 l 11.78526,-13.90656 11.78527,-13.90656 h 11.5722 11.57221 v 13.30832 13.30833 h 3.80238 3.80237 v 4.88877 4.88877 h -3.80237 -3.80238 v 5.16037 5.16037 h -8.69115 -8.69115 z m 0,-19.47313 c 0,-2.49437 0.14045,-6.4665 0.31211,-8.82695 l 0.3121,-4.29173 -1.2627,1.41581 c -0.69449,0.7787 -2.79286,3.58975 -4.66307,6.24677 -1.87019,2.65702 -4.27689,5.99203 -5.34821,7.41113 l -1.94785,2.58019 h 6.29881 6.29881 z"
       id="path784"
       inkscape:connector-curvature="0" /><path
       style="fill:#069330;fill-opacity:1;stroke-width:0.54319698"
       d="m 48.405791,201.22618 -6.808183,-2.94743 -10.57412,-20.60914 c -5.815766,-11.33503 -10.753812,-20.61725 -10.973435,-20.62717 -0.219622,-0.01 -0.464061,7.15863 -0.543196,15.93011 L 19.362974,188.92068 12.573012,186.0643 5.7830499,183.20791 5.642728,152.73386 c -0.077177,-16.76073 -0.034429,-30.47405 0.094996,-30.47405 0.129425,0 3.3768788,1.22139 7.216565,2.7142 l 6.981245,2.7142 10.507036,19.83669 c 5.778871,10.91019 10.722146,19.96965 10.985058,20.13214 0.27105,0.16751 0.47802,-6.55481 0.47802,-15.52595 v -15.82137 l 1.222194,0.385 c 0.672206,0.21175 3.911017,1.42204 7.19736,2.68953 l 5.975167,2.30453 0.140211,31.29689 c 0.111465,24.88029 9.7e-5,31.28571 -0.543197,31.24241 -0.375875,-0.0299 -3.747091,-1.38081 -7.491592,-3.0019 z"
       id="path786"
       inkscape:connector-curvature="0" /><path
       style="fill:#069330;fill-opacity:1;stroke-width:0.54319698"
       d="m 38.063809,128.51226 -3.221002,-6.78427 3.84296,-6.79565 c 2.113628,-3.73761 4.029369,-6.79565 4.257202,-6.79565 0.38793,0 13.163077,4.89236 13.52302,5.17876 0.09109,0.0725 -2.456668,4.82556 -5.661689,10.56239 -5.607011,10.03628 -6.693315,11.41869 -8.972833,11.41869 -0.300661,0 -1.996107,-3.05292 -3.767658,-6.78427 z"
       id="path788"
       inkscape:connector-curvature="0" /><path
       style="fill:#069330;fill-opacity:1;stroke-width:0.54319698"
       d="m 82.453911,149.96285 c -5.610641,-8.06647 -10.504918,-14.66632 -10.876173,-14.66632 -0.371255,0 -1.13133,-0.33367 -1.689056,-0.74149 -0.947977,-0.69317 -0.680633,-1.11789 4.10309,-6.51836 2.814427,-3.17728 5.362867,-5.76198 5.663201,-5.74378 0.300334,0.0182 3.479326,1.18834 7.064425,2.6003 l 6.518364,2.56722 0.142931,18.58438 c 0.07861,10.2214 -0.05249,18.58437 -0.291344,18.58437 -0.23885,0 -5.024797,-6.59984 -10.635438,-14.66632 z"
       id="path790"
       inkscape:connector-curvature="0" /><path
       style="fill:#ffc001;fill-opacity:1;stroke-width:0.54319698"
       d="m 13.160229,124.7828 c -3.112751,-1.24238 -5.7486109,-2.52606 -5.857466,-2.85263 -0.1092449,-0.32773 2.711882,-1.71199 6.296723,-3.08965 l 6.494642,-2.4959 6.951214,2.68599 c 3.823168,1.4773 7.0808,2.70018 7.239181,2.71752 0.808083,0.0884 -13.451697,5.3899 -14.378352,5.34554 -0.597517,-0.0286 -3.63319,-1.06849 -6.745942,-2.31087 z"
       id="path794"
       inkscape:connector-curvature="0" /><path
       style="fill:#ffc001;fill-opacity:1;stroke-width:0.54319698"
       d="m 50.338971,110.58871 c -3.278769,-1.30318 -6.036849,-2.59576 -6.129066,-2.87241 -0.09222,-0.27665 2.747379,-1.62326 6.310213,-2.99246 l 6.477879,-2.48946 5.626352,2.19167 c 3.094494,1.20542 6.237449,2.43181 6.984345,2.72532 1.224649,0.48125 0.691278,0.79537 -5.431969,3.19912 -3.73448,1.466 -7.034401,2.65245 -7.33316,2.63655 -0.298758,-0.0159 -3.225826,-1.09515 -6.504594,-2.39833 z"
       id="path796"
       inkscape:connector-curvature="0" /><path
       style="fill:#ffc001;fill-opacity:1;stroke-width:0.54319698"
       d="m 87.035977,124.79644 c -3.112224,-1.24577 -5.748083,-2.53391 -5.857467,-2.86253 -0.110665,-0.33247 2.677168,-1.70276 6.285235,-3.08934 l 6.484112,-2.49186 6.434913,2.48469 c 3.5392,1.36658 6.62746,2.65601 6.86279,2.86539 0.46913,0.4174 -12.419883,5.4942 -13.736199,5.4105 -0.448138,-0.0285 -3.361161,-1.07108 -6.473384,-2.31685 z"
       id="path798"
       inkscape:connector-curvature="0" /><path
       style="fill:#ffc001;fill-opacity:1;stroke-width:0.54319698"
       d="m 50.325202,139.08154 c -3.826584,-1.50066 -6.518364,-2.85769 -6.518364,-3.28616 0,-0.42954 2.682228,-1.77383 6.518364,-3.2669 l 6.518363,-2.53703 3.53078,1.3389 c 1.94193,0.73639 5.180742,1.95835 7.19736,2.71547 2.016619,0.75712 3.66658,1.55069 3.66658,1.76349 0,0.21279 -2.138838,1.19463 -4.752974,2.18187 -2.614135,0.98723 -5.852947,2.21159 -7.197359,2.7208 l -2.444387,0.92584 z"
       id="path800"
       inkscape:connector-curvature="0" /><g
       id="g948"
       transform="matrix(1.0315918,0,0,1,-1.7623902,-1.9537476)"><path
         inkscape:connector-curvature="0"
         id="path802"
         d="m 109.80527,129.03994 v -23.6389 l 12.86043,0.14563 12.86044,0.14563 5.74406,13.54768 5.74407,13.54769 0.14512,-13.68349 0.14513,-13.68348 h 8.68182 8.68182 v 23.6389 23.6389 l -12.87863,-0.14563 -12.87863,-0.14563 -5.72586,-13.56565 -5.72587,-13.56566 -0.14513,13.70146 -0.14512,13.70145 h -8.68183 -8.68182 z"
         style="fill:#011da9;fill-opacity:1;stroke-width:0.54319698" /><path
         inkscape:connector-curvature="0"
         id="path804"
         d="M 175.5321,129.04977 V 105.4207 h 10.59235 10.59234 v 23.62907 23.62907 H 186.12445 175.5321 Z"
         style="fill:#011da9;fill-opacity:1;stroke-width:0.54319698" /><path
         inkscape:connector-curvature="0"
         id="path806"
         d="M 207.58072,129.04977 V 105.4207 l 12.90093,0.009 12.90093,0.009 5.70357,13.57838 5.70357,13.57838 0.14513,-13.58772 0.14512,-13.58773 h 8.68183 8.68181 v 23.62907 23.62907 h -12.79283 -12.79285 l -0.84181,-2.03699 c -0.463,-1.12034 -3.07825,-7.29242 -5.81166,-13.71572 l -4.96984,-11.67874 -0.14512,13.71572 -0.14513,13.71573 h -8.68182 -8.68183 z"
         style="fill:#011da9;fill-opacity:1;stroke-width:0.54319698" /><path
         inkscape:connector-curvature="0"
         id="path808"
         d="m 283.08511,135.29653 v -17.3823 h -7.06156 -7.06157 v -6.24676 -6.24677 h 24.44387 24.44386 v 6.24677 6.24676 h -6.78997 -6.78996 v 17.3823 17.38231 h -10.59233 -10.59234 z"
         style="fill:#011da9;fill-opacity:1;stroke-width:0.54319698" /><path
         inkscape:connector-curvature="0"
         id="path810"
         d="M 324.91127,129.04977 V 105.4207 h 21.18468 21.18469 v 5.96368 5.96369 l -10.72815,0.14728 -10.72814,0.14728 -0.16556,2.58019 -0.16556,2.58018 h 10.0789 10.07891 v 5.97517 5.97517 h -10.07753 -10.07753 l 0.16419,2.85178 0.16418,2.85179 10.99974,0.14704 10.99974,0.14705 v 5.96392 5.96392 h -21.45628 -21.45628 z"
         style="fill:#011da9;fill-opacity:1;stroke-width:0.54319698" /><path
         inkscape:connector-curvature="0"
         id="path812"
         d="M 375.97179,129.04977 V 105.4207 h 12.92645 12.92644 l 5.64331,13.33872 c 3.10381,7.3363 5.84226,13.46169 6.08544,13.61199 0.24318,0.15029 0.44214,-5.85214 0.44214,-13.33873 V 105.4207 h 8.41956 8.41955 v 23.62907 23.62907 h -12.70702 c -9.65703,0 -12.77292,-0.16298 -12.9816,-0.679 -2.91671,-7.21221 -10.94136,-25.80016 -11.30315,-26.18209 -0.29035,-0.30652 -0.48882,5.04186 -0.48882,13.17252 v 13.68857 h -8.69116 -8.69114 z"
         style="fill:#011da9;fill-opacity:1;stroke-width:0.54319698" /><path
         inkscape:connector-curvature="0"
         id="path814"
         d="M 440.61223,129.04977 V 105.4207 h 14.86675 c 20.99833,0 26.92317,1.21956 32.84774,6.76131 3.27372,3.06218 5.27683,7.32007 6.12431,13.01811 1.60682,10.80354 -3.03227,19.96976 -12.30235,24.30775 -5.538,2.59155 -10.11121,3.13073 -26.73433,3.15202 l -14.80212,0.0189 z m 28.19738,12.04999 c 0.72003,-0.35357 1.82,-1.33298 2.44439,-2.17648 1.03464,-1.3977 1.13525,-2.26637 1.13525,-9.80143 0,-6.98416 -0.14876,-8.49485 -0.95816,-9.73015 -1.53351,-2.34044 -3.39622,-3.24901 -6.7999,-3.3168 l -3.10588,-0.0619 -0.14632,12.48178 c -0.0804,6.86497 -0.0152,12.82355 0.14513,13.24127 0.22498,0.58627 0.93974,0.67362 3.1339,0.383 1.56335,-0.20706 3.43157,-0.66576 4.15159,-1.01933 z"
         style="fill:#011da9;fill-opacity:1;stroke-width:0.54319698" /><path
         inkscape:connector-curvature="0"
         id="path816"
         d="m 521.32097,153.2269 c -9.11532,-1.65205 -15.94167,-6.92847 -18.78235,-14.51783 -1.47272,-3.93462 -2.00344,-11.25482 -1.12246,-15.48209 1.38362,-6.63919 5.88238,-12.79756 11.40807,-15.61656 8.78881,-4.48371 24.11241,-4.32604 32.67857,0.33624 7.0712,3.84863 11.35358,11.80837 11.35358,21.10311 0,11.48276 -5.67957,19.5342 -16.29591,23.10131 -3.98424,1.33871 -14.53405,1.92863 -19.2395,1.07582 z m 10.7457,-11.81758 c 0.25792,-0.1528 0.95275,-1.37154 1.54407,-2.70831 0.88586,-2.00263 1.0772,-3.65309 1.08691,-9.37543 0.0162,-9.58767 -1.0797,-12.66367 -4.7579,-13.3537 -2.32662,-0.43648 -4.63912,0.69642 -5.62645,2.75641 -1.89334,3.95034 -1.66794,17.6131 0.34753,21.06405 0.54954,0.94095 1.60184,1.88124 2.33844,2.08952 1.28979,0.36471 4.09583,0.10305 5.0674,-0.47254 z"
         style="fill:#011da9;fill-opacity:1;stroke-width:0.54319698" /></g><path
       style="fill:#011da9;fill-opacity:1;stroke-width:0.54319698"
       d="m 318.39291,178.43343 v -23.67632 l 24.57966,0.26053 c 26.28214,0.27857 28.77715,0.50093 36.75599,3.27569 10.59853,3.68581 15.40079,9.94597 15.48603,20.18736 0.0352,4.21893 -0.15886,5.31452 -1.41567,7.99605 -1.96097,4.18388 -5.59648,7.57136 -10.94785,10.20095 -9.23781,4.53932 -16.54378,5.43207 -44.45422,5.43207 h -20.00394 z m 39.65337,12.1664 c 2.85867,-0.85924 4.71981,-2.90373 5.46283,-6.00096 0.8992,-3.7483 0.42677,-12.63283 -0.79724,-14.99273 -1.27743,-2.46292 -4.73425,-3.92355 -10.16697,-4.29592 l -4.27616,-0.29309 v 13.44107 13.44108 l 3.93818,-0.364 c 2.166,-0.2002 4.79371,-0.62115 5.83936,-0.93545 z"
       id="path818"
       inkscape:connector-curvature="0" /><path
       style="fill:#011da9;fill-opacity:1;stroke-width:0.54319698"
       d="m 236.91336,178.48069 v -23.62906 h 21.2061 c 11.66334,0 23.57972,0.25386 26.48084,0.56413 20.4504,2.18717 30.1547,10.26392 29.33549,24.41549 -0.43539,7.52092 -4.56225,13.11993 -12.53627,17.00823 -8.91902,4.34911 -16.43556,5.24822 -43.98047,5.26087 l -20.50569,0.009 z m 39.70922,12.17489 c 2.60785,-0.65957 4.6154,-2.61186 5.32916,-5.18247 0.32126,-1.157 0.5801,-4.54803 0.57521,-7.53561 -0.0156,-9.50455 -2.30448,-12.08019 -11.23017,-12.63705 l -4.50759,-0.28122 v 13.02276 c 0,7.16252 0.1766,13.19936 0.39243,13.41519 0.45021,0.45022 6.53375,-0.0663 9.44096,-0.8016 z"
       id="path820"
       inkscape:connector-curvature="0" /><path
       style="fill:#011da9;fill-opacity:1;stroke-width:0.54319698"
       d="m 20.177769,174.40672 c 0,-11.56281 0.146966,-14.70837 0.678997,-14.53287 0.584458,0.1928 12.357731,22.33859 12.357731,23.24517 0,0.24827 -8.822338,4.35901 -12.584004,5.86348 -0.248998,0.0996 -0.452724,-6.45952 -0.452724,-14.57578 z"
       id="path822"
       inkscape:connector-curvature="0" /><path
       style="fill:#011da9;fill-opacity:1;stroke-width:0.54319698"
       d="m 47.58015,130.27196 c 1.064269,-1.86724 3.58392,-6.39247 5.599225,-10.05606 l 3.66419,-6.66108 6.932077,-2.70907 c 3.812642,-1.48998 7.051453,-2.70906 7.19736,-2.70906 0.145906,0 0.265283,5.08748 0.265283,11.3055 v 11.30551 l -1.621899,1.55388 -1.621899,1.55388 -5.303862,-2.00159 c -2.917125,-1.10088 -5.549983,-1.99883 -5.850795,-1.99545 -0.300813,0.003 -2.726177,0.86168 -5.389698,1.90733 -2.66352,1.04566 -5.059271,1.90119 -5.323891,1.90119 -0.264619,0 0.38964,-1.52774 1.453909,-3.39498 z"
       id="path824"
       inkscape:connector-curvature="0" /><path
       style="fill:#000000;fill-opacity:1;stroke-width:0.57597607"
       d="M 245.45009,80.967572 V 55.912613 h 22.77376 c 12.52556,0 25.251,0.276229 28.27875,0.613843 21.23424,2.367759 31.49225,11.00738 30.61692,25.786571 -0.33946,5.731642 -1.87377,9.119939 -5.91748,13.067865 -5.58844,5.456058 -14.58486,8.840168 -26.71102,10.047678 -3.28063,0.32668 -15.65691,0.59396 -27.50286,0.59396 h -21.53807 z m 41.79167,12.890966 c 3.66307,-0.922371 5.80763,-3.54827 6.33318,-7.754636 0.59512,-4.763132 -0.006,-12.364254 -1.15324,-14.582773 -1.31488,-2.542688 -4.85768,-4.031002 -10.66069,-4.478497 l -4.63224,-0.357213 V 80.594215 94.50301 h 3.77678 c 2.07723,0 4.92853,-0.290012 6.33621,-0.644472 z"
       id="path950"
       inkscape:connector-curvature="0"
       transform="matrix(0.94308946,0,0,0.94308946,5.4319697,102.12103)" /><path
       style="fill:#000000;fill-opacity:1;stroke-width:0.57597607"
       d="M 331.8465,80.967572 V 55.912613 h 22.48577 c 12.36717,0 25.00265,0.269179 28.07883,0.598177 18.68845,1.998724 28.40018,8.335597 30.67692,20.016582 2.02934,10.411639 -2.40999,18.583773 -12.89364,23.735288 -9.89611,4.8628 -17.1865,5.75987 -46.8098,5.75987 H 331.8465 Z m 40.36659,13.183618 c 2.84894,-0.404479 5.47341,-2.124857 6.61795,-4.338156 1.24468,-2.406952 1.71467,-10.140474 0.88535,-14.568367 -1.06582,-5.690695 -3.76986,-7.601383 -11.61362,-8.20625 l -4.57758,-0.352998 v 14.238229 14.238229 l 3.31186,-0.358813 c 1.82152,-0.197346 4.24074,-0.49069 5.37604,-0.651874 z"
       id="path952"
       inkscape:connector-curvature="0"
       transform="matrix(0.94308946,0,0,0.94308946,5.4319697,102.12103)" /></g></g></g>
</svg>