<?xml version="1.0" encoding="UTF-8" standalone="no"?>
<svg
   xmlns:dc="http://purl.org/dc/elements/1.1/"
   xmlns:cc="http://creativecommons.org/ns#"
   xmlns:rdf="http://www.w3.org/1999/02/22-rdf-syntax-ns#"
   xmlns:svg="http://www.w3.org/2000/svg"
   xmlns="http://www.w3.org/2000/svg"
   xml:space="preserve"
   enable-background="new 0 0 566.929 102.84"
   viewBox="0 0 601.14018 109.04799"
   height="109.04798"
   width="601.1402"
   y="0px"
   x="0px"
   id="Layer_1"
   version="1.1"><metadata
   id="metadata50"><rdf:RDF><cc:Work
       rdf:about=""><dc:format>image/svg+xml</dc:format><dc:type
         rdf:resource="http://purl.org/dc/dcmitype/StillImage" /><dc:title></dc:title></cc:Work></rdf:RDF></metadata><defs
   id="defs48">
	
	

		
		
		
	
			
			
			
			
			
			
			
			
			
			
		</defs>

<g
   transform="scale(1.0296279,1)"
   id="g231"><g
     id="g18"
     transform="scale(1.0603448)">
		<g
   id="layer2">
			<path
   id="polygon3542"
   d="m 51.491,11.127 -11.878,21.197 11.878,-4.552 11.338,4.341 3.036,-3.406 V 5.553 Z"
   style="fill:#0222a9" />
			<path
   id="polygon3558"
   d="M 88.391,64.354 V 25.369 L 102.98,19.742 V 81.161 L 88.391,87.288 66.938,59.29 v 37.017 l -15.447,6.535 V 39.606 L 66.938,33.69 Z"
   style="fill:#011da9" />
			<path
   id="polygon3560"
   d="M 14.589,87.288 28.277,81.227 14.589,54.653 Z"
   style="fill:#0222a9" />
		</g>
		<g
   id="layer3">
			<path
   id="polygon3538"
   d="M 36.044,33.689 39.613,32.324 51.491,11.127 37.117,5.535 29.178,19.742 Z"
   style="fill:#069330" />
			<path
   id="polygon3540"
   d="m 73.807,19.742 14.584,5.627 V 64.354 L 66.938,33.69 62.829,32.113 Z"
   style="fill:#069330" />
			<path
   id="polygon3552"
   d="M 51.491,102.842 V 39.606 L 36.044,33.689 V 65.792 L 14.589,25.369 0,19.742 v 61.419 l 14.589,6.127 V 54.653 l 21.455,41.654 z"
   style="fill:#069330" />
		</g>
		<g
   id="layer4">
			<path
   id="polygon3554"
   d="m 14.589,25.369 14.589,-5.627 6.866,13.947 v 32.103 z"
   style="fill:#fe2015" />
			<path
   id="polygon3556"
   d="m 66.938,74.586 4.383,6.145 17.07,6.557 L 66.938,59.29 Z"
   style="fill:#fe2015" />
		</g>
		<g
   id="layer5">
			<path
   id="polygon3544"
   d="m 36.044,33.689 15.447,-5.917 15.447,5.917 -15.447,5.917 z"
   style="fill:#ffc001" />
			<path
   id="polygon3546"
   d="M 102.98,19.742 88.391,25.369 73.802,19.742 88.391,14.129 Z"
   style="fill:#ffc001" />
			<path
   id="polygon3548"
   d="M 29.178,19.742 14.589,25.369 0,19.742 14.589,14.129 Z"
   style="fill:#ffc001" />
			<path
   id="polygon3550"
   d="M 37.117,5.535 51.491,11.127 65.865,5.553 51.491,0 Z"
   style="fill:#ffc001" />
		</g>
	</g><path
     style="fill:#011da9;fill-opacity:1"
     d="m 553.875,0.3515625 c -19.59396,0 -29.33789,11.7472395 -29.33789,28.8066405 0,17.062859 9.74772,28.814453 29.33789,28.814453 19.58513,0 29.33398,-11.751594 29.33398,-28.814453 0,-17.059401 -9.74632,-28.8066405 -29.33398,-28.8066405 z M 118.16016,1.75 v 0.037109 H 117.8457 V 56.53125 h 18.24414 v -9.753906 l 0.0605,-6.271485 0.14649,-15.458984 11.99218,31.484375 h 26.97852 V 1.7871094 h -0.0859 v -0.015625 h -8.92773 -8.92774 v 0.015625 h -0.3125 V 32.835938 c -0.0169,0.144331 -0.0351,0.284132 -0.0527,0.341796 h -0.0684 c -0.0253,-0.03312 -0.16162,-0.358638 -0.22852,-0.501953 L 144.82227,1.7871094 h -23.46485 z m 223.1914,0.023437 V 56.513672 H 386.5625 V 42.15625 h -23.06641 v -6.144531 h 20.58203 V 21.976562 h -20.58203 v -5.724609 h 22.35352 V 1.7734375 Z M 186.28711,1.7871094 V 56.53125 h 22.50195 V 1.7871094 Z m 33.33594,0 V 56.53125 h 18.25 V 24.931641 h 0.1582 L 250.0625,56.53125 h 26.97461 V 1.7871094 H 258.79883 V 33.177734 h -0.16602 L 246.59766,1.7871094 Z m 63.9414,0 V 16.658203 h 14.29883 V 56.53125 h 22.4961 V 16.658203 h 14.3457 V 1.7871094 Z m 111.30469,0 V 56.53125 h 18.24414 V 24.931641 h 0.16016 l 12.03711,31.599609 h 26.98047 V 1.7871094 H 434.04297 V 33.177734 h -0.16211 L 421.8457,1.7871094 Z m 67.10547,0 V 56.533203 h 28.00195 c 17.46116,0 28.62696,-10.23833 28.62696,-26.767578 0,-16.226139 -7.2363,-27.9785156 -29.97266,-27.9785156 z M 484,14.220703 h 2.19336 c 3.62071,0 6.0437,1.011603 7.46094,3.212891 1.49295,2.279657 1.66406,6.418469 1.66406,11.724609 0,5.30153 -0.16985,9.446456 -1.66406,11.722656 -1.41724,2.198982 -3.84023,3.212891 -7.46094,3.212891 H 484 Z m 69.875,0 c 3.61188,0 6.05859,1.848483 6.05859,14.9375 0,13.390973 -2.6032,14.941406 -6.05859,14.941406 -3.46169,0 -6.05859,-1.549281 -6.05859,-14.941406 0,-13.089017 2.44294,-14.9375 6.05859,-14.9375 z"
     id="path3528" /><g
     transform="matrix(1.7521976,0,0,1.1525065,-152.70163,-37.11168)"
     id="g120"><path
       style="fill:#0124a6;stroke-width:0.93474466"
       d="m 217.37095,84.250557 h 21.123 c 18.016,0 23.75,8.909605 23.75,21.211093 0,12.53129 -8.848,20.29279 -22.684,20.29279 h -22.189 z m 17.453,32.072653 h 1.738 c 2.869,0 4.789,-0.76803 5.912,-2.43514 1.184,-1.72565 1.318,-4.86852 1.318,-8.88776 0,-4.02273 -0.135,-7.159487 -1.318,-8.887755 -1.123,-1.668858 -3.043,-2.436882 -5.912,-2.436882 h -1.738 z"
       id="path114" /><path
       id="path116"
       d="m 266.49882,84.250557 h 21.123 c 18.016,0 23.75,8.909605 23.75,21.211093 0,12.53129 -8.848,20.29279 -22.684,20.29279 h -22.189 z m 17.453,32.072653 h 1.738 c 2.869,0 4.789,-0.76803 5.912,-2.43514 1.184,-1.72565 1.318,-4.86852 1.318,-8.88776 0,-4.02273 -0.135,-7.159487 -1.318,-8.887755 -1.123,-1.668858 -3.043,-2.436882 -5.912,-2.436882 h -1.738 z"
       style="fill:#0124a6;stroke-width:0.93474466" /></g><g
     id="layer7"
     transform="matrix(1.6511472,0,0,1.221882,-717.39114,37.195898)">
			<path
   id="path3532"
   d="m 530.583,27.436 c -0.949,-0.083 -1.871,-0.044 -3.158,0.014 -7.521,0.348 -10.563,3.553 -11.594,7.174 h 0.182 c 1.873,-1.637 4.188,-2.401 7.289,-2.401 5.965,0 11.414,4.338 11.414,12.476 0,7.788 -5.986,13.852 -14.02,13.852 -10.584,0 -15.186,-8.083 -15.186,-16.75 0,-7.041 2.498,-13.004 6.598,-16.85 3.902,-3.615 8.932,-5.441 15.09,-5.582 1.631,-0.094 2.6,0 3.385,0.071 z m -10.021,23.456 c 2.439,0 3.918,-2.491 3.918,-5.673 -0.02,-2.686 -1.25,-5.613 -4.52,-5.613 -1.998,0 -3.555,1.266 -4.143,2.795 -0.227,0.469 -0.313,1.137 -0.313,2.27 0.209,3.035 1.672,6.222 4.998,6.222 h 0.06 z"
   style="fill:#ff2d1e" />
			<path
   id="path3534"
   d="m 553.365,57.911 v -8.524 h -15.846 v -6.811 l 12.723,-22.671 h 12.66 v 21.673 h 4.027 v 7.809 h -4.027 v 8.524 z m 0,-16.333 v -6.531 c 0,-2.414 0.145,-4.922 0.268,-7.565 h -0.207 c -1.178,2.565 -2.203,5.007 -3.543,7.657 l -3.113,6.326 -0.035,0.115 z"
   style="fill:#ff2d1e" />
		</g><path
     style="fill:#069330;fill-opacity:1;stroke-width:0.57597607"
     d="M 45.567068,105.08563 38.348046,101.96034 27.135833,80.107548 C 20.969116,68.088507 15.733085,58.246147 15.500209,58.235633 15.267333,58.225122 15.008144,65.826251 14.924233,75.127037 L 14.771668,92.037556 7.571967,89.008809 0.37226603,85.980056 0.22347649,53.667053 C 0.14164221,35.8949 0.18697015,21.354048 0.32420521,21.354048 c 0.13723511,0 3.58065579,1.295094 7.65204639,2.877986 l 7.4025274,2.877987 11.141081,21.03374 c 6.127596,11.568557 11.369172,21.174708 11.647949,21.347002 0.287406,0.177627 0.506866,-6.950352 0.506866,-16.462852 V 36.251799 l 1.295947,0.408235 c 0.71277,0.22453 4.147027,1.507853 7.631683,2.851831 l 6.335737,2.443596 0.148672,33.185487 c 0.118192,26.381692 1.03e-4,33.173642 -0.575976,33.127732 -0.398557,-0.0317 -3.973208,-1.46414 -7.94367,-3.18305 z"
     id="path124" /><path
     style="fill:#069330;fill-opacity:1;stroke-width:0.57597607"
     d="m 34.601001,27.983808 -3.415373,-7.193666 4.074863,-7.205736 c 2.241174,-3.963155 4.27252,-7.2057363 4.514102,-7.2057363 0.411339,0 13.9574,5.1875883 14.339064,5.4912763 0.09659,0.07685 -2.604915,5.116753 -6.003343,11.199775 -5.945365,10.641918 -7.097221,12.107753 -9.514297,12.107753 -0.318804,0 -2.116561,-3.23715 -3.995016,-7.193666 z"
     id="path126" /><path
     style="fill:#069330;fill-opacity:1;stroke-width:0.57597607"
     d="M 81.669815,50.728828 C 75.720601,42.175583 70.530979,35.177474 70.137321,35.177474 c -0.393658,0 -1.1996,-0.353806 -1.790982,-0.786236 -1.005182,-0.735006 -0.721705,-1.185351 4.350691,-6.911713 2.984262,-3.369012 5.686488,-6.109688 6.004945,-6.09039 0.318458,0.0193 3.689285,1.260048 7.490727,2.757222 l 6.911713,2.722134 0.151556,19.705846 c 0.08335,10.838215 -0.05566,19.705845 -0.308925,19.705845 -0.253263,0 -5.328017,-6.998109 -11.277231,-15.551354 z"
     id="path128" /><path
     style="fill:#ffc001;fill-opacity:1;stroke-width:0.57597607"
     d="M 8.1946197,24.029289 C 4.8940302,22.71194 2.0991099,21.350795 1.9836859,21.004522 1.8678487,20.657011 4.8592157,19.189217 8.6603833,17.728423 l 6.8865597,-2.646514 7.370684,2.848081 c 4.053876,1.566445 7.508089,2.86312 7.676028,2.8815 0.856846,0.09378 -14.263437,5.71516 -15.246011,5.668123 -0.633574,-0.03033 -3.852434,-1.132975 -7.1530243,-2.450324 z"
     id="path130" /><path
     style="fill:#ffc001;fill-opacity:1;stroke-width:0.57597607"
     d="M 47.616905,8.9786609 C 44.140279,7.5968447 41.215764,6.2262578 41.117982,5.9329132 41.020201,5.6395686 44.031151,4.2117014 47.808983,2.7598754 l 6.868786,-2.63968369 5.965873,2.32392639 c 3.28123,1.2781595 6.613846,2.5785584 7.405814,2.8897753 1.29855,0.5102872 0.732993,0.8433684 -5.759761,3.3921668 -3.959836,1.5544748 -7.45889,2.8125198 -7.775677,2.7956558 -0.316787,-0.01686 -3.420488,-1.161239 -6.897113,-2.5430551 z"
     id="path132" /><path
     style="fill:#ffc001;fill-opacity:1;stroke-width:0.57597607"
     d="m 86.528384,24.043755 c -3.30003,-1.320946 -6.09495,-2.686816 -6.210934,-3.035269 -0.117343,-0.352536 2.838721,-1.805514 6.664516,-3.275772 l 6.875394,-2.642224 6.82323,2.634629 c 3.75277,1.449046 7.02739,2.816281 7.27692,3.038299 0.49744,0.442584 -13.169358,5.825743 -14.565107,5.736993 -0.47518,-0.03021 -3.563989,-1.13571 -6.864019,-2.456656 z"
     id="path134" /><path
     style="fill:#ffc001;fill-opacity:1;stroke-width:0.57597607"
     d="m 47.602305,39.190881 c -4.057498,-1.591214 -6.911713,-3.030133 -6.911713,-3.484459 0,-0.45546 2.844086,-1.880872 6.911713,-3.464042 l 6.911713,-2.690125 3.743844,1.419692 c 2.059115,0.78083 5.493372,2.076534 7.631683,2.879342 2.138311,0.802808 3.887839,1.644263 3.887839,1.8699 0,0.225637 -2.267906,1.266728 -5.039791,2.313536 -2.771885,1.046808 -6.206142,2.345054 -7.631683,2.884991 l -2.591892,0.981705 z"
     id="path138" /><path
     style="fill:#011da9;fill-opacity:1;stroke-width:0.57597607"
     d="M 54.802006,75.493208 V 42.209002 l 5.903755,-2.281171 c 8.45985,-3.268828 10.16481,-3.851562 10.430124,-3.564883 0.129526,0.139956 4.577102,6.475008 9.883503,14.077892 5.3064,7.602884 10.325926,14.730588 11.154502,15.839342 l 1.506501,2.015916 0.287988,-20.663351 0.287988,-20.663351 7.199703,-2.806137 c 3.95983,-1.543375 7.26665,-2.806829 7.34849,-2.807674 0.0818,-8.47e-4 0.0818,14.571147 0,32.382207 l -0.14879,32.383741 -7.1997,3.02115 c -3.959837,1.661628 -7.329297,3.026553 -7.487691,3.033171 -0.158393,0.0066 -5.342178,-6.599033 -11.519521,-14.67922 l -11.231534,-14.691245 -0.287988,19.635542 -0.287988,19.635539 -7.919671,3.35047 -7.919671,3.35047 z"
     id="path140" /><path
     style="fill:#011da9;fill-opacity:1;stroke-width:0.57597607"
     d="m 44.691604,29.849695 c 1.128492,-1.979918 3.800191,-6.77822 5.937109,-10.662894 l 3.885305,-7.063043 7.350391,-2.8725441 c 4.042715,-1.5798993 7.476972,-2.8725442 7.631683,-2.8725442 0.154711,0 0.281292,5.3944823 0.281292,11.9877373 v 11.987738 l -1.719772,1.647646 -1.719772,1.647646 -5.623923,-2.122377 c -3.093158,-1.167308 -5.884895,-2.119445 -6.20386,-2.115862 -0.318965,0.0036 -2.890688,0.913677 -5.714938,2.022431 -2.82425,1.108754 -5.364572,2.015917 -5.64516,2.015917 -0.280588,0 0.413152,-1.619933 1.541645,-3.599851 z"
     id="path142" /><path
     style="fill:#011da9;fill-opacity:1;stroke-width:0.57597607"
     d="m 15.635632,76.647752 c 0,-12.260563 0.155834,-15.595945 0.71997,-15.409851 0.619727,0.204432 13.103456,23.68661 13.103456,24.647898 0,0.263248 -9.35472,4.622053 -13.343383,6.217311 -0.264024,0.105596 -0.480043,-6.849316 -0.480043,-15.455358 z"
     id="path144" /><path
     style="fill:#fe2015;fill-opacity:1;stroke-width:0.57597607"
     d="M 35.643482,64.40826 C 32.648412,59.218562 16.211608,27.888822 16.211608,27.369702 c 0,-0.536303 14.305175,-6.318882 14.662444,-5.926997 0.09995,0.109632 1.766381,3.370414 3.703185,7.246181 l 3.521462,7.046851 v 15.56021 c 0,8.900286 -0.223098,15.560211 -0.521245,15.560211 -0.286686,0 -1.156973,-1.101554 -1.933972,-2.447898 z"
     id="path148" /><path
     style="fill:#fe2015;fill-opacity:1;stroke-width:0.57597607"
     d="m 83.616945,88.529956 c -7.716137,-2.993263 -7.773586,-3.029181 -10.270199,-6.421067 -2.037301,-2.767866 -2.44757,-3.726403 -2.176046,-5.084025 0.184037,-0.920182 0.334612,-3.973363 0.334612,-6.784846 0,-2.811484 0.229789,-5.111788 0.510641,-5.111788 0.280853,0 3.833084,4.34142 7.893848,9.647599 4.060764,5.30618 8.649635,11.267532 10.197493,13.24745 1.547856,1.979918 2.466639,3.58116 2.041739,3.558315 -0.4249,-0.02284 -4.26434,-1.396082 -8.532088,-3.051638 z"
     id="path150" /><path
     style="fill:#fe2015;fill-opacity:1;stroke-width:0.57597607"
     d="m 133.27914,107.43647 c -9.68197,-2.60713 -15.03927,-8.828152 -15.57522,-18.086316 -0.44122,-7.621795 1.95004,-13.591542 7.57534,-18.911714 6.02949,-5.702439 14.35709,-8.626303 26.14273,-9.178846 l 7.05571,-0.33079 v 4.617313 4.617314 l -5.32778,0.403882 c -6.44698,0.488726 -9.64645,1.212773 -13.21173,2.989848 -2.48595,1.239094 -6.18481,5.053159 -5.53283,5.705146 0.15362,0.153613 1.44582,-0.236708 2.87156,-0.867381 7.15624,-3.165548 18.3947,-1.574247 23.70143,3.355984 4.07002,3.781272 5.40612,10.918218 2.97571,15.895217 -2.23459,4.576003 -7.94714,8.632473 -14.18038,10.069463 -3.61762,0.83399 -12.94711,0.67612 -16.49454,-0.27912 z m 11.64337,-8.568265 c 3.8027,-1.588873 5.05356,-7.351585 2.30481,-10.618292 -4.22959,-5.026583 -13.51659,-2.806527 -13.51659,3.231139 0,2.850799 1.91862,5.840027 4.61929,7.19689 2.43183,1.221792 4.01438,1.267465 6.59249,0.190263 z"
     id="path152" /><path
     style="fill:#fe2015;fill-opacity:1;stroke-width:0.57597607"
     d="m 133.27914,107.43647 c -9.68197,-2.60713 -15.03927,-8.828152 -15.57522,-18.086316 -0.44122,-7.621795 1.95004,-13.591542 7.57534,-18.911714 6.02949,-5.702439 14.35709,-8.626303 26.14273,-9.178846 l 7.05571,-0.33079 v 4.6399 4.639901 l -5.03979,0.38263 c -9.65909,0.733334 -15.884,3.160608 -18.17774,7.08803 l -1.09846,1.880827 3.04237,-1.199191 c 7.83012,-3.086343 18.43027,-1.574851 23.77427,3.390009 4.05584,3.768092 5.42527,10.991559 3.00756,15.86433 -2.26436,4.56372 -7.24453,8.25063 -13.2609,9.81728 -4.25914,1.10907 -13.3342,1.11113 -17.44587,0.004 z m 13.30991,-10.022292 c 3.68939,-3.627337 2.11152,-9.844889 -2.90423,-11.444024 -4.62599,-1.474867 -9.97409,1.374546 -9.97409,5.314085 0,2.878268 1.81566,5.662717 4.65043,7.13176 3.16404,1.639681 5.8772,1.309334 8.22789,-1.001821 z"
     id="path154" /><path
     style="fill:#fe2015;fill-opacity:1;stroke-width:0.57597607"
     d="M 196.49212,102.56668 V 97.382891 H 183.53266 170.5732 v -4.234767 -4.234766 l 10.22357,-13.58862 10.22358,-13.58862 10.51156,-0.03187 10.51157,-0.03187 v 13.247449 13.24745 h 3.16786 3.16787 v 4.607809 4.607809 h -3.16787 -3.16786 v 5.183785 5.18378 h -7.77568 -7.77568 z m 0.10204,-22.895054 c 0.10286,-4.672606 0.0916,-8.625242 -0.0251,-8.783635 -0.11665,-0.158394 -0.50567,0.193788 -0.8645,0.782626 -0.35883,0.588837 -2.69393,4.216944 -5.1891,8.062459 -2.49518,3.845514 -4.66122,7.316374 -4.81343,7.713021 -0.20971,0.546505 1.05318,0.721176 5.21416,0.721176 h 5.49091 z"
     id="path156" /><path
     style="fill:#fe2015;fill-opacity:1;stroke-width:0.57597607"
     d="M 196.49212,102.56668 V 97.382891 H 183.53266 170.5732 v -4.24941 -4.24941 l 10.22357,-13.604561 10.22358,-13.604561 10.51156,-0.0013 10.51157,-0.0013 v 13.247449 13.24745 h 3.16786 3.16787 v 4.607809 4.607809 h -3.16787 -3.16786 v 5.183794 5.18378 h -7.77568 -7.77568 z m -8e-5,-23.183042 -7e-5,-8.783635 -2.77954,4.31982 c -1.52875,2.375902 -3.9731,6.173654 -5.4319,8.43945 -1.4588,2.265796 -2.49747,4.274512 -2.30817,4.463814 0.1893,0.189303 2.63369,0.344186 5.43197,0.344186 h 5.08779 z"
     id="path158" /><path
     style="fill:#000000;fill-opacity:1;stroke-width:0.57597607"
     d="M 228.17081,83.847453 V 59.944445 l 18.28724,0.0057 c 33.23417,0.01035 43.6078,1.589769 52.36361,7.972528 5.18698,3.781173 8.02158,10.400342 7.55661,17.645677 -0.76457,11.913593 -11.84343,19.615 -31.05291,21.58627 -3.19348,0.32771 -15.10968,0.59584 -26.48044,0.59584 h -20.67411 z m 41.86136,11.821067 c 1.48623,-0.657319 2.76027,-1.747686 3.33046,-2.850321 1.23882,-2.395603 1.7432,-9.895683 0.94989,-14.124615 -1.09671,-5.846322 -4.02715,-7.796019 -11.72714,-7.802381 l -3.88784,-0.0032 v 13.326895 13.326895 l 4.46381,-0.404352 c 2.4551,-0.222393 5.54697,-0.883403 6.87082,-1.468909 z"
     id="path160" /><path
     style="fill:#000000;fill-opacity:1;stroke-width:0.57597607"
     d="M 314.56722,83.77204 V 59.793621 l 23.75901,0.311205 c 17.70528,0.23191 25.07983,0.539611 28.9428,1.207626 15.47823,2.67662 23.31943,8.791144 25.03353,19.520998 2.26285,14.164875 -9.07853,23.97302 -30.3839,26.27632 -3.25949,0.35238 -15.24699,0.64069 -26.63889,0.64069 h -20.71255 z m 41.2777,11.893375 c 3.9968,-1.756845 4.5124,-3.107191 4.5124,-11.817962 0,-6.331837 -0.16851,-7.795531 -1.05286,-9.145218 -1.63845,-2.500594 -5.13118,-3.786883 -10.32267,-3.801595 l -4.46382,-0.01265 v 12.863465 c 0,7.074907 0.1944,13.061517 0.43199,13.303579 0.7054,0.718681 8.30326,-0.250403 10.89496,-1.389619 z"
     id="path162" /><path
     style="fill:#011da9;fill-opacity:1;stroke-width:0.57597607"
     d="m 118.16016,1.75 v 27.369141 27.36914 h 8.92773 8.92578 V 40.822266 c 0,-8.887941 0.21648,-15.429565 0.5,-15.119141 0.27487,0.300948 3.06277,7.346777 6.19336,15.658203 l 5.69141,15.111328 13.39062,0.0078 13.39258,0.0078 V 29.128906 1.7714844 h -8.92773 -8.92774 V 17.322266 c 0,8.553245 -0.19405,15.547668 -0.43164,15.542968 -0.23759,-0.0047 -3.07047,-6.938902 -6.29492,-15.408203 L 144.73633,2.0585938 131.44727,1.9042969 Z"
     id="path183" /></g></svg>